<?xml version="1.0" encoding="UTF-8"?>
<svg version="1.1" xmlns="http://www.w3.org/2000/svg" width="512" height="512">
<path d="M0 0 C0.80280733 -0.00205263 1.60561466 -0.00410527 2.43274948 -0.0062201 C5.13968671 -0.01190269 7.84657327 -0.0104313 10.55351543 -0.00901413 C12.50713478 -0.01159704 14.46075359 -0.01460999 16.41437167 -0.01801753 C21.7961686 -0.0260994 27.17795221 -0.02787776 32.55975449 -0.028615 C38.35878523 -0.03046347 44.15780902 -0.03800971 49.95683575 -0.04475021 C62.64261379 -0.05834203 75.32838868 -0.06435945 88.01417279 -0.06876087 C95.9314288 -0.0715216 103.84868358 -0.07575862 111.76593876 -0.08026505 C133.67607358 -0.09245833 155.58620738 -0.10279324 177.49634552 -0.10614014 C178.91326099 -0.10636177 180.33017646 -0.10658355 181.74709193 -0.10680549 C183.16744014 -0.10702613 184.58778836 -0.10724661 186.00813657 -0.10746694 C188.8576287 -0.10790949 191.70712084 -0.10835661 194.55661297 -0.10880661 C195.26312155 -0.108916 195.96963012 -0.10902539 196.69754805 -0.1091381 C219.61175965 -0.11276962 242.52593962 -0.12869348 265.44013911 -0.15199697 C289.66248426 -0.17658584 313.88481133 -0.19031252 338.10716933 -0.19150805 C351.31280096 -0.19242579 364.51839118 -0.19820282 377.72401142 -0.21632767 C388.96694031 -0.23170409 400.20981499 -0.23686363 411.45275239 -0.22858956 C417.19126832 -0.22467448 422.92967501 -0.22565453 428.6681776 -0.23964691 C433.9193318 -0.25233416 439.1702941 -0.25123398 444.42144784 -0.2390562 C446.32319172 -0.23709021 448.22494895 -0.24021898 450.12667403 -0.24890056 C452.70866119 -0.25994327 455.28996511 -0.25254013 457.87193298 -0.24050903 C458.61286024 -0.24810423 459.35378749 -0.25569942 460.11716709 -0.26352477 C468.2406852 -0.18162667 473.52957274 2.9736447 479.39425945 8.36189651 C484.20160205 13.277757 485.24664325 17.94553515 485.25894928 24.61444855 C485.26340712 25.73564913 485.26786497 26.85684971 485.2724579 28.01202607 C485.27218135 29.85985519 485.27218135 29.85985519 485.27189922 31.74501419 C485.27557591 33.05360767 485.2792526 34.36220115 485.2830407 35.71044898 C485.29305308 39.34587341 485.29677626 42.98128132 485.29943001 46.61671758 C485.30333525 50.53640776 485.31291334 54.4560849 485.32164288 58.37576675 C485.34139961 67.84251413 485.35147184 77.30926257 485.36037067 86.77602541 C485.36475429 91.23396857 485.37012085 95.69191054 485.37535954 100.14985275 C485.39236994 114.96825412 485.40686471 129.78665476 485.41410828 144.60506439 C485.41601817 148.44995245 485.4179385 152.29484051 485.41989422 156.13972855 C485.42037796 157.0953554 485.4208617 158.05098225 485.4213601 159.03556749 C485.4296627 174.52050976 485.45500433 190.00537484 485.4874749 205.4902834 C485.52053833 221.38746467 485.53855633 237.2846067 485.54175252 253.18182254 C485.54391812 262.10791611 485.55267432 271.03389706 485.57821369 279.95995712 C485.59991079 287.56066643 485.60797595 295.16123576 485.59824691 302.76197252 C485.5936995 306.63946106 485.59561382 310.51666073 485.61500835 314.39410973 C485.63586186 318.59957905 485.62566368 322.8044066 485.6124754 327.00990677 C485.62892926 328.84435156 485.62892926 328.84435156 485.64571553 330.71585584 C485.57737822 339.72804916 483.69957292 346.55658304 477.1247282 353.13142776 C470.06211342 357.73975127 464.72895113 359.28249193 456.32030582 359.26564884 C455.12757326 359.26917719 455.12757326 359.26917719 453.91074508 359.27277681 C451.22981106 359.2794665 448.5489255 359.2790086 445.86798382 359.27859879 C443.9330016 359.28189743 441.99802007 359.28562299 440.06303942 359.28974026 C434.73264223 359.29976831 429.4022563 359.30347835 424.07185102 359.30612957 C418.32797691 359.31003022 412.58411174 359.3196087 406.84024334 359.32834244 C392.96261812 359.34811322 379.08499217 359.35817366 365.20735639 359.36707023 C358.67459086 359.37145196 352.14182613 359.37681905 345.60906124 359.3820591 C323.89709341 359.39907169 302.18512653 359.41359134 280.47315311 359.42080784 C279.0689903 359.4212826 277.66482749 359.42175848 276.26066468 359.4222355 C275.21615904 359.42259006 275.21615904 359.42259006 274.15055228 359.42295179 C270.62257576 359.42415299 267.09459925 359.42536844 263.56662273 359.42659378 C262.51641734 359.42695401 262.51641734 359.42695401 261.44499567 359.42732151 C238.74575021 359.43521414 216.046557 359.45864526 193.34733435 359.49114972 C169.34769421 359.52545358 145.34808597 359.54515835 121.34842074 359.54845208 C108.26619777 359.55061859 95.1840516 359.55938799 82.10185146 359.58491325 C70.96183783 359.60659864 59.82191966 359.61468127 48.68188731 359.60494647 C42.99764808 359.6003956 37.3136059 359.60233398 31.62939358 359.62170792 C26.42429439 359.63929572 21.21953665 359.63837731 16.01443405 359.62281062 C14.13282277 359.62042791 12.25118812 359.62479239 10.36961262 359.63663927 C-0.58141006 359.70131107 -9.14346495 359.32010758 -18.6877718 353.38142776 C-23.93376694 347.98554704 -26.99697178 342.34009502 -27.00669956 334.7686615 C-27.01054071 333.64883527 -27.01438185 332.52900903 -27.0183394 331.37524867 C-27.01747291 330.13976763 -27.01660643 328.90428659 -27.01571369 327.63136673 C-27.01868481 326.32292211 -27.02165594 325.01447749 -27.02471709 323.66638303 C-27.03279614 320.02676626 -27.03457717 316.3871692 -27.03531456 312.74754453 C-27.03716355 308.82513095 -27.04471013 304.90272763 -27.05144978 300.98031998 C-27.06504022 292.39972417 -27.07105897 283.81913303 -27.07546043 275.23852825 C-27.07822175 269.88199832 -27.08245892 264.5254702 -27.08696461 259.1689415 C-27.09915839 244.34199893 -27.10945737 229.51505782 -27.1128397 214.68811035 C-27.11305926 213.73887344 -27.11327883 212.78963652 -27.11350505 211.81163485 C-27.11372333 210.86010906 -27.11394161 209.90858328 -27.1141665 208.92822337 C-27.11460997 207.00002718 -27.11505653 205.07183099 -27.11550617 203.1436348 C-27.1157276 202.18718013 -27.11594903 201.23072547 -27.11617717 200.24528733 C-27.12012532 184.74668811 -27.13757938 169.2481359 -27.16086569 153.74955484 C-27.18457344 137.84223963 -27.19704129 121.934948 -27.19820762 106.02761483 C-27.19912472 97.09429506 -27.20488594 88.16103653 -27.22302723 79.22773361 C-27.23842046 71.62076483 -27.2435533 64.01387622 -27.23528913 56.40689483 C-27.2313798 52.52553565 -27.23232588 48.64433794 -27.24634647 44.76299858 C-27.26140798 40.55502326 -27.25322724 36.34741253 -27.24276447 32.13942337 C-27.25082088 30.91286522 -27.25887728 29.68630706 -27.26717782 28.42258048 C-27.21037211 18.67954863 -25.28789987 13.09238295 -18.64480305 5.86189651 C-13.00179095 0.34345422 -7.55766245 -0.01787961 0 0 Z " fill="#F34334" transform="translate(26.875271797180176,76.86857223510742)"/>
<path d="M0 0 C0.80280733 -0.00205263 1.60561466 -0.00410527 2.43274948 -0.0062201 C5.13968671 -0.01190269 7.84657327 -0.0104313 10.55351543 -0.00901413 C12.50713478 -0.01159704 14.46075359 -0.01460999 16.41437167 -0.01801753 C21.7961686 -0.0260994 27.17795221 -0.02787776 32.55975449 -0.028615 C38.35878523 -0.03046347 44.15780902 -0.03800971 49.95683575 -0.04475021 C62.64261379 -0.05834203 75.32838868 -0.06435945 88.01417279 -0.06876087 C95.9314288 -0.0715216 103.84868358 -0.07575862 111.76593876 -0.08026505 C133.67607358 -0.09245833 155.58620738 -0.10279324 177.49634552 -0.10614014 C178.91326099 -0.10636177 180.33017646 -0.10658355 181.74709193 -0.10680549 C183.16744014 -0.10702613 184.58778836 -0.10724661 186.00813657 -0.10746694 C188.8576287 -0.10790949 191.70712084 -0.10835661 194.55661297 -0.10880661 C195.26312155 -0.108916 195.96963012 -0.10902539 196.69754805 -0.1091381 C219.61175965 -0.11276962 242.52593962 -0.12869348 265.44013911 -0.15199697 C289.66248426 -0.17658584 313.88481133 -0.19031252 338.10716933 -0.19150805 C351.31280096 -0.19242579 364.51839118 -0.19820282 377.72401142 -0.21632767 C388.96694031 -0.23170409 400.20981499 -0.23686363 411.45275239 -0.22858956 C417.19126832 -0.22467448 422.92967501 -0.22565453 428.6681776 -0.23964691 C433.9193318 -0.25233416 439.1702941 -0.25123398 444.42144784 -0.2390562 C446.32319172 -0.23709021 448.22494895 -0.24021898 450.12667403 -0.24890056 C452.70866119 -0.25994327 455.28996511 -0.25254013 457.87193298 -0.24050903 C458.61286024 -0.24810423 459.35378749 -0.25569942 460.11716709 -0.26352477 C468.2406852 -0.18162667 473.52957274 2.9736447 479.39425945 8.36189651 C484.20160205 13.277757 485.24664325 17.94553515 485.25894928 24.61444855 C485.26340712 25.73564913 485.26786497 26.85684971 485.2724579 28.01202607 C485.27218135 29.85985519 485.27218135 29.85985519 485.27189922 31.74501419 C485.27557591 33.05360767 485.2792526 34.36220115 485.2830407 35.71044898 C485.29305308 39.34587341 485.29677626 42.98128132 485.29943001 46.61671758 C485.30333525 50.53640776 485.31291334 54.4560849 485.32164288 58.37576675 C485.34139961 67.84251413 485.35147184 77.30926257 485.36037067 86.77602541 C485.36475429 91.23396857 485.37012085 95.69191054 485.37535954 100.14985275 C485.39236994 114.96825412 485.40686471 129.78665476 485.41410828 144.60506439 C485.41601817 148.44995245 485.4179385 152.29484051 485.41989422 156.13972855 C485.42037796 157.0953554 485.4208617 158.05098225 485.4213601 159.03556749 C485.4296627 174.52050976 485.45500433 190.00537484 485.4874749 205.4902834 C485.52053833 221.38746467 485.53855633 237.2846067 485.54175252 253.18182254 C485.54391812 262.10791611 485.55267432 271.03389706 485.57821369 279.95995712 C485.59991079 287.56066643 485.60797595 295.16123576 485.59824691 302.76197252 C485.5936995 306.63946106 485.59561382 310.51666073 485.61500835 314.39410973 C485.63586186 318.59957905 485.62566368 322.8044066 485.6124754 327.00990677 C485.62892926 328.84435156 485.62892926 328.84435156 485.64571553 330.71585584 C485.57737822 339.72804916 483.69957292 346.55658304 477.1247282 353.13142776 C470.06211342 357.73975127 464.72895113 359.28249193 456.32030582 359.26564884 C455.12757326 359.26917719 455.12757326 359.26917719 453.91074508 359.27277681 C451.22981106 359.2794665 448.5489255 359.2790086 445.86798382 359.27859879 C443.9330016 359.28189743 441.99802007 359.28562299 440.06303942 359.28974026 C434.73264223 359.29976831 429.4022563 359.30347835 424.07185102 359.30612957 C418.32797691 359.31003022 412.58411174 359.3196087 406.84024334 359.32834244 C392.96261812 359.34811322 379.08499217 359.35817366 365.20735639 359.36707023 C358.67459086 359.37145196 352.14182613 359.37681905 345.60906124 359.3820591 C323.89709341 359.39907169 302.18512653 359.41359134 280.47315311 359.42080784 C279.0689903 359.4212826 277.66482749 359.42175848 276.26066468 359.4222355 C275.21615904 359.42259006 275.21615904 359.42259006 274.15055228 359.42295179 C270.62257576 359.42415299 267.09459925 359.42536844 263.56662273 359.42659378 C262.51641734 359.42695401 262.51641734 359.42695401 261.44499567 359.42732151 C238.74575021 359.43521414 216.046557 359.45864526 193.34733435 359.49114972 C169.34769421 359.52545358 145.34808597 359.54515835 121.34842074 359.54845208 C108.26619777 359.55061859 95.1840516 359.55938799 82.10185146 359.58491325 C70.96183783 359.60659864 59.82191966 359.61468127 48.68188731 359.60494647 C42.99764808 359.6003956 37.3136059 359.60233398 31.62939358 359.62170792 C26.42429439 359.63929572 21.21953665 359.63837731 16.01443405 359.62281062 C14.13282277 359.62042791 12.25118812 359.62479239 10.36961262 359.63663927 C-0.58141006 359.70131107 -9.14346495 359.32010758 -18.6877718 353.38142776 C-23.93376694 347.98554704 -26.99697178 342.34009502 -27.00669956 334.7686615 C-27.01054071 333.64883527 -27.01438185 332.52900903 -27.0183394 331.37524867 C-27.01747291 330.13976763 -27.01660643 328.90428659 -27.01571369 327.63136673 C-27.01868481 326.32292211 -27.02165594 325.01447749 -27.02471709 323.66638303 C-27.03279614 320.02676626 -27.03457717 316.3871692 -27.03531456 312.74754453 C-27.03716355 308.82513095 -27.04471013 304.90272763 -27.05144978 300.98031998 C-27.06504022 292.39972417 -27.07105897 283.81913303 -27.07546043 275.23852825 C-27.07822175 269.88199832 -27.08245892 264.5254702 -27.08696461 259.1689415 C-27.09915839 244.34199893 -27.10945737 229.51505782 -27.1128397 214.68811035 C-27.11305926 213.73887344 -27.11327883 212.78963652 -27.11350505 211.81163485 C-27.11372333 210.86010906 -27.11394161 209.90858328 -27.1141665 208.92822337 C-27.11460997 207.00002718 -27.11505653 205.07183099 -27.11550617 203.1436348 C-27.1157276 202.18718013 -27.11594903 201.23072547 -27.11617717 200.24528733 C-27.12012532 184.74668811 -27.13757938 169.2481359 -27.16086569 153.74955484 C-27.18457344 137.84223963 -27.19704129 121.934948 -27.19820762 106.02761483 C-27.19912472 97.09429506 -27.20488594 88.16103653 -27.22302723 79.22773361 C-27.23842046 71.62076483 -27.2435533 64.01387622 -27.23528913 56.40689483 C-27.2313798 52.52553565 -27.23232588 48.64433794 -27.24634647 44.76299858 C-27.26140798 40.55502326 -27.25322724 36.34741253 -27.24276447 32.13942337 C-27.25082088 30.91286522 -27.25887728 29.68630706 -27.26717782 28.42258048 C-27.21037211 18.67954863 -25.28789987 13.09238295 -18.64480305 5.86189651 C-13.00179095 0.34345422 -7.55766245 -0.01787961 0 0 Z M-7.8752718 20.13142776 C-10.01678245 23.19286331 -10.12772585 25.80262663 -10.13533401 29.48227215 C-10.14239961 30.57397227 -10.1494652 31.66567239 -10.1567449 32.79045433 C-10.15432981 33.98936823 -10.15191473 35.18828214 -10.14942646 36.42352676 C-10.15466314 37.69748497 -10.15989982 38.97144318 -10.16529518 40.28400618 C-10.17948797 43.82262785 -10.18113824 47.36116175 -10.18069828 50.89980781 C-10.18234532 54.71515656 -10.19540957 58.53046902 -10.20689106 62.34579849 C-10.22974703 70.68860596 -10.237662 79.03138799 -10.2427175 87.37422252 C-10.24597319 92.58182896 -10.25249481 97.789428 -10.25971889 102.99703026 C-10.27928396 117.41139711 -10.29568926 131.82575707 -10.29859543 146.24013805 C-10.298783 147.16263447 -10.29897057 148.08513089 -10.29916382 149.03558174 C-10.29953008 150.90574586 -10.29989377 152.77590999 -10.30025493 154.64607411 C-10.30043774 155.5744415 -10.30062056 156.50280889 -10.30080891 157.45930862 C-10.30098946 158.38880687 -10.30117 159.31830513 -10.30135603 160.27596999 C-10.30489963 175.34587511 -10.33193407 190.41563751 -10.3693068 205.48549312 C-10.40735717 220.95213129 -10.42675266 236.41869858 -10.42705494 251.88538462 C-10.42764018 260.57163131 -10.43617482 269.25770766 -10.4650526 277.9439106 C-10.4895226 285.33832423 -10.49687905 292.73250539 -10.48180508 300.12694853 C-10.4746186 303.90083748 -10.47556756 307.67426695 -10.49821568 311.44810486 C-10.52251715 315.53652549 -10.50821932 319.62389328 -10.49000263 323.71234512 C-10.5032026 324.90902831 -10.51640257 326.10571149 -10.53000253 327.3386578 C-10.51881389 328.43296566 -10.50762525 329.52727353 -10.49609756 330.65474224 C-10.49691202 331.59845729 -10.49772648 332.54217234 -10.49856561 333.51448482 C-9.58471957 337.35133172 -8.01828748 338.79506956 -4.8752718 341.13142776 C-2.03619343 341.62350371 0.20187538 341.80567576 3.03493023 341.76063347 C3.82936035 341.76790067 4.62379048 341.77516788 5.44229424 341.7826553 C8.11515592 341.80096198 10.78659283 341.78352429 13.459445 341.76634598 C15.39061087 341.77210494 17.32177126 341.78004453 19.25292015 341.7899822 C24.5680553 341.81090966 29.88274323 341.80051348 35.19788027 341.78505111 C40.92667083 341.77376567 46.65538301 341.79118635 52.38415813 341.80495071 C63.61014344 341.82721765 74.83596186 341.82236651 86.06195378 341.80788751 C95.18318349 341.79660887 104.30436633 341.79505841 113.42560101 341.80050659 C114.722349 341.80127276 116.019097 341.80203892 117.35514039 341.8028283 C119.98922008 341.80442688 122.62329975 341.80604795 125.25737941 341.80769126 C149.26899805 341.82155193 173.28052641 341.80716268 197.29213051 341.78097828 C219.21847492 341.75724967 241.14467413 341.75937279 263.07101727 341.78328323 C287.6974411 341.81004823 312.32377716 341.8205855 336.95021439 341.80522192 C339.57476138 341.80362912 342.19930838 341.80205727 344.8238554 341.80050659 C346.76099306 341.79934953 346.76099306 341.79934953 348.73726481 341.79816908 C357.85060044 341.79384671 366.96388466 341.80115022 376.07721233 341.81290436 C387.17895714 341.82690795 398.28052512 341.82317443 409.38224959 341.79650064 C415.04969853 341.78333373 420.71685234 341.77825912 426.38429928 341.7947464 C431.56822004 341.80959929 436.75157095 341.80153476 441.93543971 341.77485864 C443.81490342 341.76925386 445.69441487 341.77215854 447.57384813 341.78423758 C450.12143317 341.79936016 452.66704557 341.78393704 455.21452618 341.76063347 C455.95079554 341.7723393 456.6870649 341.78404513 457.44564545 341.79610568 C461.22477488 341.72661982 463.01750957 341.21113969 466.08013964 338.93422067 C468.35705619 335.81294451 468.74944699 334.46543681 468.74834728 330.65753555 C468.76015262 329.56384439 468.77195796 328.47015322 468.78412104 327.34331989 C468.77160319 326.14731883 468.75908534 324.95131777 468.74618816 323.71907425 C468.75257699 322.44426162 468.75896581 321.16944899 468.76554823 319.85600567 C468.78255109 316.31941633 468.76835144 312.78353428 468.74903345 309.2469821 C468.7336167 305.43232319 468.74700564 301.61775153 468.75677776 297.80308914 C468.77131233 290.3309592 468.75906235 282.85910074 468.73766452 275.38699651 C468.71366597 266.68774366 468.71536819 257.98855317 468.71797043 249.28927457 C468.72166161 233.7688291 468.70082649 218.24851164 468.66672039 202.72810745 C468.6336284 187.66362142 468.61946198 172.59926973 468.62570477 157.53474808 C468.63246726 141.1354107 468.63001255 124.73612963 468.61034536 108.33680058 C468.60930588 107.4697775 468.60826639 106.60275443 468.60719541 105.70945793 C468.60510449 103.96802806 468.60299352 102.22659822 468.60086223 100.4851684 C468.59396368 94.41956741 468.59329782 88.35398376 468.59474468 82.28837967 C468.59618371 74.89766904 468.58650603 67.50706805 468.56279832 60.1163938 C468.55093005 56.34464831 468.54381863 52.57305571 468.54963589 48.80129242 C468.55575163 44.71529775 468.53866022 40.62973378 468.51913738 36.54378128 C468.52712927 34.74977969 468.52712927 34.74977969 468.53528261 32.91953564 C468.52169765 31.27899889 468.52169765 31.27899889 468.50783825 29.60531998 C468.50626705 28.662147 468.50469584 27.71897402 468.50307703 26.74722004 C468.04369699 23.57120186 467.0066779 21.71400963 465.1247282 19.13142776 C461.46098442 16.68893191 458.74251148 16.85167863 454.50747395 16.87695217 C453.72041663 16.87374569 452.93335932 16.87053922 452.12245178 16.86723557 C449.46303258 16.85887896 446.80383527 16.86487952 444.14441204 16.87073135 C442.22735265 16.86771324 440.31029446 16.86382549 438.39323843 16.85913879 C433.10791715 16.84880605 427.8226633 16.85105396 422.53733635 16.85531938 C416.84398118 16.85777709 411.15064266 16.84878436 405.45729351 16.84128189 C394.29658761 16.82850604 383.13590573 16.8267448 371.97519375 16.82908215 C362.90684507 16.83086231 353.83850371 16.8291222 344.77015591 16.82485771 C343.48146301 16.82426252 342.19277012 16.82366733 340.86502593 16.82305411 C338.24737419 16.82184241 335.62972244 16.82062827 333.0120707 16.81941173 C315.42537321 16.8116196 297.83867962 16.80770883 280.25198078 16.81172848 C279.5638749 16.81188485 278.87576902 16.81204123 278.16681145 16.81220234 C274.67902832 16.81300816 271.1912452 16.81385393 267.70346208 16.81471565 C266.66439117 16.81497228 266.66439117 16.81497228 265.60432893 16.81523409 C264.20349199 16.81558075 262.80265504 16.81592928 261.40181809 16.81627968 C239.60338411 16.82163724 217.80499058 16.81370687 196.00656414 16.79524612 C171.52886424 16.77454074 147.0511936 16.76383174 122.57348382 16.76782161 C109.60823701 16.76973729 96.64302704 16.76721057 83.67778683 16.75310707 C72.64008583 16.74122227 61.60244436 16.73975565 50.56474258 16.75189724 C44.92977213 16.75780645 39.29491073 16.75882921 33.6599474 16.74689484 C28.50569066 16.73610515 23.35163492 16.73905639 18.19738786 16.75315652 C16.32862582 16.75582264 14.45984837 16.75337747 12.59110136 16.74542066 C10.05837688 16.73538178 7.52636018 16.74367861 4.99366474 16.75669765 C4.26163672 16.74938831 3.5296087 16.74207896 2.77539802 16.73454812 C-1.60507875 16.78148624 -4.44295602 17.3533529 -7.8752718 20.13142776 Z " fill="#010000" transform="translate(26.875271797180176,76.86857223510742)"/>
<path d="M0 0 C5.06650743 3.68623542 6.57060975 8.47857837 8.84082031 14.17919922 C12.42158153 23.82365058 12.42158153 23.82365058 18.95703125 31.40820312 C23.13162297 33.03254235 27.34710731 33.07168195 31.78027344 32.98388672 C35.55404386 33.011281 39.17771174 33.73652398 42.875 34.4375 C44.17179687 34.64246094 45.46859375 34.84742188 46.8046875 35.05859375 C50 36 50 36 51.9453125 37.59765625 C53.5983862 41.3629908 54.34041902 44.10104695 53 48 C49.24984558 52.56746208 44.76362582 56.40422455 40.32397461 60.28564453 C33.94388777 65.51424281 33.94388777 65.51424281 30.48461914 72.63720703 C30.72314138 75.2353335 31.24922215 77.50468367 32 80 C32.26362201 81.39616747 32.5156533 82.79459279 32.75390625 84.1953125 C33.15217941 86.16530754 33.5639594 88.1318558 33.98242188 90.09765625 C34.94088576 94.8663682 35.28117132 99.16385336 35 104 C33 107 33 107 30 109 C22.25295771 110.10176301 17.35710498 106.93476124 10.8125 103.0625 C8.88493058 101.94330741 6.95404712 100.82979864 5.01953125 99.72265625 C4.17495361 99.22515869 3.33037598 98.72766113 2.46020508 98.21508789 C-0.17496495 96.91358534 -2.06106033 96.18281971 -5 96 C-7.84912246 97.04494127 -7.84912246 97.04494127 -10.7109375 98.74609375 C-11.79117188 99.33583984 -12.87140625 99.92558594 -13.984375 100.53320312 C-16.23718479 101.79846208 -18.48979041 103.06408463 -20.7421875 104.33007812 C-21.825 104.92111328 -22.9078125 105.51214844 -24.0234375 106.12109375 C-25.49176025 106.94758423 -25.49176025 106.94758423 -26.98974609 107.79077148 C-30.56543538 109.22713718 -33.17768644 109.34310043 -37 109 C-39.9375 107.125 -39.9375 107.125 -42 104 C-42.88822449 97.09290673 -41.48234547 90.39202735 -39.9375 83.6875 C-39.54161687 81.96431938 -39.15458285 80.23907672 -38.77734375 78.51171875 C-38.60452881 77.76365967 -38.43171387 77.01560059 -38.25366211 76.24487305 C-37.83889734 72.5742647 -38.23049678 70.0020042 -40.50292969 67.04296875 C-41.13618164 66.43066406 -41.76943359 65.81835938 -42.421875 65.1875 C-43.11796875 64.50429687 -43.8140625 63.82109375 -44.53125 63.1171875 C-45.2634375 62.41851562 -45.995625 61.71984375 -46.75 61 C-47.46671875 60.30132812 -48.1834375 59.60265625 -48.921875 58.8828125 C-52.73262621 55.17009344 -52.73262621 55.17009344 -56.59350586 51.50976562 C-59.11243972 49.11104021 -60.01810136 47.94037198 -61.0625 44.5 C-60.98475193 40.14610798 -60.01893475 39.05392241 -57 36 C-54.29296875 34.92578125 -54.29296875 34.92578125 -51.1875 34.3125 C-50.04667969 34.085625 -48.90585937 33.85875 -47.73046875 33.625 C-31.02946488 30.82692605 -31.02946488 30.82692605 -24 31 C-23.67128906 29.86111328 -23.67128906 29.86111328 -23.3359375 28.69921875 C-21.4741588 23.54394264 -19.06264205 18.71665091 -16.625 13.8125 C-16.14289063 12.81541016 -15.66078125 11.81832031 -15.1640625 10.79101562 C-14.6896875 9.83517578 -14.2153125 8.87933594 -13.7265625 7.89453125 C-13.08581787 6.59286011 -13.08581787 6.59286011 -12.43212891 5.26489258 C-9.22528836 0.19331744 -5.88699186 -0.82624447 0 0 Z " fill="#030100" transform="translate(95,137)"/>
<path d="M0 0 C2.06132142 -0.10864945 4.12431321 -0.18588321 6.1875 -0.25 C7.33605469 -0.29640625 8.48460937 -0.3428125 9.66796875 -0.390625 C13.65710294 0.07703434 15.21091307 1.16502316 18 4 C19.0098018 7.02940539 19.12919108 9.05928114 19.13701439 12.22779655 C19.1446262 13.86236016 19.1446262 13.86236016 19.15239179 15.52994525 C19.15288955 16.731772 19.15338731 17.93359874 19.15390015 19.17184448 C19.1582824 20.44494826 19.16266465 21.71805205 19.1671797 23.02973473 C19.17914874 26.57059375 19.18479438 30.11143914 19.18936086 33.65231442 C19.19531549 37.46835299 19.20692548 41.28437526 19.21765137 45.10040283 C19.24217537 54.31838015 19.25680088 63.53636286 19.26971143 72.75436276 C19.27342284 75.35690848 19.2773961 77.95945366 19.2814641 80.56199884 C19.30669595 96.71685347 19.32875313 112.87170892 19.34119225 129.0265789 C19.34412202 132.7685331 19.34708368 136.51048727 19.35009766 140.25244141 C19.35084371 141.18250516 19.35158976 142.11256891 19.35235842 143.07081641 C19.3650201 158.14724515 19.39825445 173.22355617 19.43989949 188.29992984 C19.4822855 203.77104954 19.50588326 219.2421089 19.51111281 234.71328652 C19.51453031 243.40291059 19.52632558 252.09235056 19.55921555 260.78191757 C19.58717124 268.18000527 19.59823511 275.57787114 19.58702008 282.97600757 C19.5818222 286.75192199 19.5847926 290.52737151 19.60948563 294.30321884 C19.63601469 298.39386708 19.62395679 302.48348552 19.60800171 306.57418823 C19.6218838 307.77155353 19.63576588 308.96891884 19.65006864 310.20256793 C19.57287836 318.1970826 19.57287836 318.1970826 16.68392372 322.24609566 C13.15576592 324.55169445 10.86532238 324.50772535 6.6875 324.3125 C4.80611328 324.24482422 4.80611328 324.24482422 2.88671875 324.17578125 C1.93410156 324.11777344 0.98148437 324.05976563 0 324 C0.16240453 323.45170721 0.32480905 322.90341442 0.49213493 322.3385067 C1.06776791 319.68795705 1.12538049 317.29711619 1.12584114 314.58389282 C1.12844889 313.47764242 1.13105664 312.37139202 1.13374341 311.23161888 C1.13151268 310.01645906 1.12928196 308.80129925 1.12698364 307.54931641 C1.12932363 305.61281943 1.12932363 305.61281943 1.13171089 303.63720131 C1.13589301 300.05105504 1.13381853 296.46493532 1.13072467 292.87878895 C1.12846627 289.01235078 1.13195239 285.14591724 1.13470459 281.27947998 C1.13915653 273.70403784 1.13818837 266.12860559 1.13529195 258.55316305 C1.13303567 252.39768486 1.13272637 246.24220944 1.13381577 240.08673096 C1.133969 239.21141366 1.13412223 238.33609636 1.13428011 237.43425429 C1.13459983 235.65619135 1.13492404 233.87812841 1.1352527 232.10006547 C1.1381058 215.41820718 1.13482312 198.73635439 1.12945233 182.054497 C1.12498445 167.73359421 1.12576043 153.41269952 1.13037109 139.09179688 C1.13571984 122.47055872 1.13783113 105.84932537 1.13475883 89.22808647 C1.13444027 87.45648066 1.1341259 85.68487485 1.13381577 83.91326904 C1.13358435 82.60569498 1.13358435 82.60569498 1.13334826 81.27170527 C1.13248401 75.12199261 1.13394402 68.97228299 1.13629532 62.8225708 C1.13909684 55.3304762 1.13834759 47.83839209 1.13301457 40.34629869 C1.13038234 36.52206629 1.12936446 32.69785137 1.13266373 28.87361908 C1.1361823 24.73262529 1.13198745 20.59167584 1.12698364 16.45068359 C1.12921436 15.23552378 1.13144509 14.02036396 1.13374341 12.76838112 C1.13113566 11.66213072 1.12852791 10.55588032 1.12584114 9.41610718 C1.12567879 8.45986135 1.12551644 7.50361553 1.12534916 6.51839256 C1.00982052 4.19730426 0.65796763 2.22135993 0 0 Z " fill="#C42727" transform="translate(476,94)"/>
<path d="M0 0 C2.70315414 3.29573748 4.36337692 6.78610915 6.1875 10.625 C8.37437371 14.96524799 8.37437371 14.96524799 11.8125 18.22265625 C13.90822684 18.74222186 15.84267089 18.88797789 18 19 C20.16917696 19.36019544 22.33582006 19.73590537 24.5 20.125 C26.33281856 20.41988417 28.16598192 20.7126705 30 21 C28.51163341 24.61576014 26.4691203 26.56091975 23.5 29.0625 C20.81509872 31.33333371 18.96528001 33.05207998 17 36 C16.47257856 43.12018948 17.80386424 49.99406196 19 57 C15.55863186 55.69191335 12.40676991 54.15365963 9.1875 52.375 C4.68831055 50.16834908 0.97610356 48.64887254 -4 50 C-8.80599511 52.10132254 -13.40706931 54.47130782 -18 57 C-18.07428884 53.13698024 -18.09029871 49.71165518 -17 46 C-16.13869212 42.06259253 -15.94708323 38.92001408 -17 35 C-19.63032377 31.33101885 -23.00663187 28.40724297 -26.375 25.43359375 C-27.24125 24.63050781 -28.1075 23.82742187 -29 23 C-29 22.34 -29 21.68 -29 21 C-27.98679688 20.87882812 -26.97359375 20.75765625 -25.9296875 20.6328125 C-24.5780849 20.46386217 -23.22652458 20.29457331 -21.875 20.125 C-21.20984375 20.04636719 -20.5446875 19.96773437 -19.859375 19.88671875 C-15.7036626 19.35706913 -11.86998465 18.62915767 -8 17 C-6.88460028 14.41471924 -6.88460028 14.41471924 -6 11 C-4.10415903 7.27492869 -2.05821581 3.63747573 0 0 Z " fill="#F9E638" transform="translate(91,165)"/>
<path d="M0 0 C0 4.29 0 8.58 0 13 C1.65 13.66 3.3 14.32 5 15 C7.3125 16.5 7.3125 16.5 9 18 C9 18.66 9 19.32 9 20 C5.04 20.99 1.08 21.98 -3 23 C-3.66 26.3 -4.32 29.6 -5 33 C-5.99 33 -6.98 33 -8 33 C-8.639375 31.865625 -9.27875 30.73125 -9.9375 29.5625 C-11.78742128 26.71293182 -12.61519189 26.08841544 -15.9921875 25.3125 C-19.0078331 25.08543963 -21.97657457 24.96624565 -25 25 C-23.83682146 21.83976608 -22.86047344 19.83030553 -20.6875 17.1875 C-18.71894062 14.28085329 -18.71894062 14.28085329 -19.41015625 11.9453125 C-20.21854257 9.81590235 -20.21854257 9.81590235 -21.203125 7.83203125 C-22 6 -22 6 -22 3 C-20.83984375 3.42925781 -20.83984375 3.42925781 -19.65625 3.8671875 C-13.56261141 6.02321046 -13.56261141 6.02321046 -7.4921875 4.86328125 C-5.36563671 3.23350409 -5.36563671 3.23350409 -3.5234375 1.41796875 C-2 0 -2 0 0 0 Z " fill="#FEE439" transform="translate(180,264)"/>
<path d="M0 0 C-0.020625 0.86882812 -0.04125 1.73765625 -0.0625 2.6328125 C-0.1366725 9.40612327 -0.1366725 9.40612327 2.84765625 15.19921875 C4.84286528 16.65251916 6.7927449 17.89888641 9 19 C6.14521674 20.90318884 4.58058692 21.4619099 1.3125 22.125 C0.50425781 22.29257813 -0.30398437 22.46015625 -1.13671875 22.6328125 C-1.75160156 22.75398438 -2.36648437 22.87515625 -3 23 C-3.12375 24.0725 -3.2475 25.145 -3.375 26.25 C-3.89643936 29.37863615 -4.40088254 31.33480424 -6 34 C-8.64752004 31.42215154 -10.94432065 29.08351902 -13 26 C-15.88595946 25.41518879 -15.88595946 25.41518879 -19.125 25.3125 C-20.22070312 25.24675781 -21.31640625 25.18101562 -22.4453125 25.11328125 C-23.28835937 25.07589844 -24.13140625 25.03851563 -25 25 C-23.92980244 22.73342438 -23.09911243 21.09911243 -21.3125 19.3125 C-18.62839614 14.58336462 -20.85180357 8.08486992 -22 3 C-21.11248047 3.34224609 -21.11248047 3.34224609 -20.20703125 3.69140625 C-14.16047794 6.07821429 -14.16047794 6.07821429 -8 5 C-1.44262295 0 -1.44262295 0 0 0 Z " fill="#FEE539" transform="translate(180,113)"/>
<path d="M0 0 C-0.020625 0.86882812 -0.04125 1.73765625 -0.0625 2.6328125 C-0.1366725 9.40612327 -0.1366725 9.40612327 2.84765625 15.19921875 C4.84286528 16.65251916 6.7927449 17.89888641 9 19 C6.68072068 21.31927932 5.69146164 21.31581797 2.5625 21.9375 C0.09107411 22.56941112 0.09107411 22.56941112 -2 24 C-3.69585548 27.56024319 -4.42584659 31.11291543 -5 35 C-5.66 35 -6.32 35 -7 35 C-7.82152793 33.53720746 -8.60707732 32.05413162 -9.375 30.5625 C-11.41259592 27.3125345 -12.30468704 26.18624454 -16.0625 25.1796875 C-19.06788753 24.95995398 -21.9900273 24.87823735 -25 25 C-23.53515625 22.4609375 -23.53515625 22.4609375 -22.0703125 19.921875 C-21.54050781 18.97054687 -21.54050781 18.97054687 -21 18 C-20.5978125 17.3709375 -20.195625 16.741875 -19.78125 16.09375 C-18.70127937 13.19942871 -19.38789627 11.63538014 -20.375 8.75 C-20.67148438 7.85796875 -20.96796875 6.9659375 -21.2734375 6.046875 C-21.51320312 5.37140625 -21.75296875 4.6959375 -22 4 C-19.03704352 4.57826266 -16.12111859 5.21611838 -13.1875 5.9375 C-9.35021176 6.44816574 -7.59994344 5.38140844 -4.5625 3.0625 C-0.9977221 0 -0.9977221 0 0 0 Z " fill="#FEE539" transform="translate(222,161)"/>
<path d="M0 0 C-0.020625 0.86882812 -0.04125 1.73765625 -0.0625 2.6328125 C-0.1366725 9.40612327 -0.1366725 9.40612327 2.84765625 15.19921875 C4.84286528 16.65251916 6.7927449 17.89888641 9 19 C6.68072068 21.31927932 5.69146164 21.31581797 2.5625 21.9375 C0.09107411 22.56941112 0.09107411 22.56941112 -2 24 C-3.69585548 27.56024319 -4.42584659 31.11291543 -5 35 C-5.66 35 -6.32 35 -7 35 C-7.82152793 33.53720746 -8.60707732 32.05413162 -9.375 30.5625 C-11.41259592 27.3125345 -12.30468704 26.18624454 -16.0625 25.1796875 C-19.06788753 24.95995398 -21.9900273 24.87823735 -25 25 C-23.53515625 22.4609375 -23.53515625 22.4609375 -22.0703125 19.921875 C-21.54050781 18.97054687 -21.54050781 18.97054687 -21 18 C-20.5978125 17.3709375 -20.195625 16.741875 -19.78125 16.09375 C-18.70127937 13.19942871 -19.38789627 11.63538014 -20.375 8.75 C-20.67148438 7.85796875 -20.96796875 6.9659375 -21.2734375 6.046875 C-21.51320312 5.37140625 -21.75296875 4.6959375 -22 4 C-20.07942708 4.52083333 -18.15885417 5.04166667 -16.23828125 5.5625 C-12.58610435 6.27636355 -10.07686283 6.6415353 -6.796875 4.6875 C-5.78367188 3.8521875 -5.78367188 3.8521875 -4.75 3 C-1.05555556 0 -1.05555556 0 0 0 Z " fill="#FEE639" transform="translate(222,222)"/>
</svg>
