<?xml version="1.0" encoding="UTF-8"?>
<svg version="1.1" xmlns="http://www.w3.org/2000/svg" width="512" height="512">
<path d="M0 0 C1.21523849 -0.01283524 2.43047699 -0.02567047 3.68254089 -0.03889465 C4.99813492 -0.04628159 6.31372894 -0.05366852 7.66918945 -0.0612793 C8.3404719 -0.06535482 9.01175434 -0.06943035 9.70337868 -0.07362938 C13.25928055 -0.09447597 16.81514403 -0.10878146 20.37109375 -0.11816406 C24.02832799 -0.12920148 27.68494926 -0.16357341 31.34196758 -0.20333576 C34.16715048 -0.22959689 36.99218971 -0.23786442 39.8174839 -0.24144554 C41.815967 -0.24863284 43.81435152 -0.27503409 45.81266785 -0.30183411 C54.03856872 -0.2822846 59.66874475 0.43436302 66.1184082 5.88793945 C66.56442383 6.43708008 67.01043945 6.9862207 67.4699707 7.55200195 C68.16219727 8.36797852 68.16219727 8.36797852 68.8684082 9.20043945 C71.88856893 14.06732266 72.43932269 19.2792637 72.9699707 24.86450195 C74.42392221 37.59604723 78.56544273 48.64171117 88.52075195 57.2824707 C100.66503703 66.14043291 112.29668891 68.39144055 127.0949707 67.17700195 C136.75740843 65.18298473 144.20977686 59.52903445 151.7199707 53.42700195 C157.43464896 48.93264562 162.83790435 47.55139278 170.0949707 48.17700195 C183.31377543 50.4501422 193.35016756 64.21855694 202.44702148 73.28881836 C204.48018666 75.31216859 206.52379178 77.32459376 208.56762695 79.3371582 C209.87687633 80.63988504 211.18549291 81.94324822 212.4934082 83.24731445 C213.39970474 84.13509079 213.39970474 84.13509079 214.3243103 85.040802 C220.12834372 90.8754994 223.77983371 96.52873132 224.3449707 104.86450195 C224.11638665 113.7302979 220.61946237 119.07997916 214.87109375 125.57641602 C205.77546173 136.06609798 204.22300581 147.52087525 204.87719727 160.9074707 C205.91407055 171.71327122 212.46698607 182.15669008 220.4465332 189.2746582 C228.70186634 195.4465025 237.05249861 198.09941968 247.2199707 199.17700195 C255.39682521 200.05009132 261.84216071 201.36738358 267.5324707 207.61450195 C273.5935319 215.50057881 273.25213967 224.47458444 273.26293945 234.0090332 C273.26626785 235.04082199 273.26959625 236.07261078 273.27302551 237.13566589 C273.27807148 239.31163083 273.28043456 241.48760344 273.28027344 243.66357422 C273.2824567 246.96831199 273.30062869 250.27271389 273.31958008 253.57739258 C273.32251524 255.70043832 273.32449921 257.82348564 273.32543945 259.9465332 C273.33262497 260.92290237 273.33981049 261.89927155 273.34721375 262.90522766 C273.31812274 271.7711268 272.89406351 280.398471 266.9621582 287.4230957 C260.59773603 293.40139185 253.46307171 294.59608827 245.06152344 295.45336914 C233.15566733 296.71830486 223.1405903 301.50400674 215.0246582 310.4621582 C206.18578092 322.22819615 203.37194301 334.76088847 205.0949707 349.17700195 C207.15905264 358.85166535 212.71973319 366.26324809 218.8449707 373.80200195 C223.47540579 379.6999292 224.95966007 385.69743893 224.0949707 393.17700195 C221.04052684 405.80203657 207.93535594 415.57836204 199.03808594 424.52905273 C197.69474344 425.88400538 196.3559035 427.24343606 195.02148438 428.60717773 C193.06489144 430.60654948 191.09527566 432.59223321 189.12231445 434.57543945 C188.53562485 435.17963715 187.94893524 435.78383484 187.34446716 436.40634155 C181.52444009 442.1965476 175.17551141 445.77852817 166.9074707 446.42700195 C158.19137692 445.85545482 153.13278818 442.64980214 146.69580078 436.953125 C136.10116356 427.7679514 124.74776809 426.44360996 111.26977539 427.00219727 C106.40653659 427.39309073 102.3811584 428.93407454 98.0949707 431.17700195 C97.16168945 431.66297852 96.2284082 432.14895508 95.2668457 432.6496582 C85.5475619 438.26612958 78.57404567 446.44368556 75.0949707 457.17700195 C73.95074458 461.54853252 73.24318261 465.93441727 72.70825195 470.41918945 C71.71977186 478.27261844 70.44184623 484.36512649 64.31762695 489.7355957 C59.53035624 493.30833685 56.04306589 494.30018581 50.18994141 494.35400391 C48.97470291 494.36683914 47.75946442 494.37967438 46.50740051 494.39289856 C45.19180649 494.40028549 43.87621246 494.40767242 42.52075195 494.4152832 C41.51382829 494.42139649 41.51382829 494.42139649 40.48656273 494.42763329 C36.93066086 494.44847988 33.37479737 494.46278537 29.81884766 494.47216797 C26.16161342 494.48320539 22.50499215 494.51757732 18.84797382 494.55733967 C16.02279093 494.5836008 13.19775169 494.59186832 10.3724575 494.59544945 C8.3739744 494.60263675 6.37558988 494.62903799 4.37727356 494.65583801 C-3.7557989 494.63650912 -9.84623596 494.11826266 -15.9284668 488.2121582 C-16.37448242 487.56118164 -16.82049805 486.91020508 -17.2800293 486.23950195 C-17.74151367 485.59110352 -18.20299805 484.94270508 -18.6784668 484.2746582 C-21.48485082 479.47520527 -22.26696588 475.02597898 -22.7800293 469.55200195 C-24.26031076 456.40159451 -28.70201148 445.02236823 -39.1550293 436.36450195 C-49.78236249 428.76586911 -61.78430691 425.04211179 -74.9050293 426.61450195 C-85.48628512 428.83246879 -94.09308608 434.04256281 -101.82299805 441.44262695 C-106.14573787 445.04355844 -110.93063413 445.96545961 -116.4050293 446.55200195 C-131.90895333 444.89086724 -141.74745816 431.5670142 -152.25708008 421.12011719 C-153.61203272 419.77677469 -154.97146341 418.43793475 -156.33520508 417.10351562 C-158.33457682 415.14692269 -160.32026056 413.17730691 -162.3034668 411.2043457 C-162.90766449 410.6176561 -163.51186218 410.03096649 -164.1343689 409.42649841 C-169.92457494 403.60647134 -173.50655552 397.25754266 -174.1550293 388.98950195 C-173.58348216 380.27340817 -170.37782948 375.21481943 -164.68115234 368.77783203 C-155.49597875 358.18319481 -154.1716373 346.82979934 -154.73022461 333.35180664 C-155.12111807 328.48856784 -156.66210188 324.46318965 -158.9050293 320.17700195 C-159.39100586 319.2437207 -159.87698242 318.31043945 -160.37768555 317.34887695 C-165.99415693 307.62959315 -174.1717129 300.65607692 -184.9050293 297.17700195 C-189.27655986 296.03277583 -193.66244462 295.32521386 -198.1472168 294.7902832 C-206.82935047 293.69749732 -213.11440701 291.93234545 -218.7800293 284.98950195 C-223.3916659 277.6010586 -223.20599302 268.4925072 -223.1706543 260.05200195 C-223.17256775 259.02445801 -223.1744812 257.99691406 -223.17645264 256.93823242 C-223.1778049 254.78018954 -223.17417602 252.62213826 -223.16577148 250.46411133 C-223.15505847 247.18592831 -223.16569982 243.9082932 -223.1784668 240.63012695 C-223.17714503 238.52075076 -223.17458229 236.4113749 -223.1706543 234.30200195 C-223.17470276 233.33504395 -223.17875122 232.36808594 -223.18292236 231.37182617 C-223.114366 221.28067976 -222.26052341 212.56670766 -214.9050293 205.17700195 C-209.69020389 201.13285164 -204.8425551 200.52588602 -198.37768555 199.6574707 C-188.33660313 198.26820958 -180.22715323 196.08449503 -171.9050293 190.17700195 C-170.8531543 189.45512695 -169.8012793 188.73325195 -168.7175293 187.98950195 C-159.39964286 178.67161552 -154.56772403 167.22485077 -154.4050293 154.17700195 C-154.56303932 140.38600078 -160.13817623 131.03428265 -168.6550293 120.55200195 C-173.14938563 114.8373237 -174.53063847 109.4340683 -173.9050293 102.17700195 C-171.63689806 88.98732572 -157.8905833 78.92168224 -148.84814453 69.82495117 C-147.50480203 68.46999853 -146.16596209 67.11056784 -144.83154297 65.74682617 C-142.87495004 63.74745443 -140.90533425 61.76177069 -138.93237305 59.77856445 C-138.34568344 59.17436676 -137.75899384 58.57016907 -137.15452576 57.94766235 C-131.33449869 52.15745631 -124.98557001 48.57547573 -116.7175293 47.92700195 C-108.00143552 48.49854909 -102.94284677 51.70420177 -96.50585938 57.40087891 C-85.91122216 66.5860525 -74.55782668 67.91039395 -61.07983398 67.35180664 C-56.21659519 66.96091318 -52.191217 65.41992937 -47.9050293 63.17700195 C-46.97174805 62.69102539 -46.0384668 62.20504883 -45.0769043 61.7043457 C-35.35762049 56.08787432 -28.38410427 47.91031835 -24.9050293 37.17700195 C-23.76080318 32.80547139 -23.0532412 28.41958663 -22.51831055 23.93481445 C-21.52983045 16.08138547 -20.25190482 9.98887742 -14.12768555 4.6184082 C-9.34041484 1.04566706 -5.85312448 0.0538181 0 0 Z " fill="#FCCC55" transform="translate(230.905029296875,8.822998046875)"/>
<path d="M0 0 C20.41808854 17.60180047 35.01464225 38.72520479 42.25 64.84375 C42.5696875 65.97941406 42.889375 67.11507812 43.21875 68.28515625 C50.80408769 100.83889716 43.56998712 134.73555705 26.25 162.84375 C8.24679315 190.68870993 -20.94048473 209.25508337 -52.9375 216.71875 C-70.56329089 219.67102604 -90.46373942 219.67837767 -107.75 214.84375 C-108.92046875 214.53824219 -110.0909375 214.23273438 -111.296875 213.91796875 C-143.55595251 204.39946412 -169.51597616 181.82633116 -185.4375 152.59375 C-199.3200562 126.10180158 -203.88189949 93.9194396 -195.75 64.84375 C-195.44449219 63.67328125 -195.13898438 62.5028125 -194.82421875 61.296875 C-189.96908323 44.84237936 -181.25481995 28.58539643 -169.75 15.84375 C-168.93837402 14.94366211 -168.93837402 14.94366211 -168.11035156 14.02539062 C-151.55922297 -4.00532248 -131.37674344 -16.61117102 -107.75 -23.15625 C-106.61433594 -23.4759375 -105.47867188 -23.795625 -104.30859375 -24.125 C-68.70053693 -32.42202295 -28.24423166 -23.38562475 0 0 Z " fill="#626B76" transform="translate(332.75,160.15625)"/>
<path d="M0 0 C1.21523849 -0.01283524 2.43047699 -0.02567047 3.68254089 -0.03889465 C4.99813492 -0.04628159 6.31372894 -0.05366852 7.66918945 -0.0612793 C8.3404719 -0.06535482 9.01175434 -0.06943035 9.70337868 -0.07362938 C13.25928055 -0.09447597 16.81514403 -0.10878146 20.37109375 -0.11816406 C24.02832799 -0.12920148 27.68494926 -0.16357341 31.34196758 -0.20333576 C34.16715048 -0.22959689 36.99218971 -0.23786442 39.8174839 -0.24144554 C41.815967 -0.24863284 43.81435152 -0.27503409 45.81266785 -0.30183411 C54.03856872 -0.2822846 59.66874475 0.43436302 66.1184082 5.88793945 C66.56442383 6.43708008 67.01043945 6.9862207 67.4699707 7.55200195 C68.16219727 8.36797852 68.16219727 8.36797852 68.8684082 9.20043945 C71.88856893 14.06732266 72.43932269 19.2792637 72.9699707 24.86450195 C74.42392221 37.59604723 78.56544273 48.64171117 88.52075195 57.2824707 C100.66503703 66.14043291 112.29668891 68.39144055 127.0949707 67.17700195 C136.75740843 65.18298473 144.20977686 59.52903445 151.7199707 53.42700195 C157.43464896 48.93264562 162.83790435 47.55139278 170.0949707 48.17700195 C183.31377543 50.4501422 193.35016756 64.21855694 202.44702148 73.28881836 C204.48018666 75.31216859 206.52379178 77.32459376 208.56762695 79.3371582 C209.87687633 80.63988504 211.18549291 81.94324822 212.4934082 83.24731445 C213.39970474 84.13509079 213.39970474 84.13509079 214.3243103 85.040802 C220.12834372 90.8754994 223.77983371 96.52873132 224.3449707 104.86450195 C224.11638665 113.7302979 220.61946237 119.07997916 214.87109375 125.57641602 C205.77546173 136.06609798 204.22300581 147.52087525 204.87719727 160.9074707 C205.91407055 171.71327122 212.46698607 182.15669008 220.4465332 189.2746582 C228.70186634 195.4465025 237.05249861 198.09941968 247.2199707 199.17700195 C255.39682521 200.05009132 261.84216071 201.36738358 267.5324707 207.61450195 C273.5935319 215.50057881 273.25213967 224.47458444 273.26293945 234.0090332 C273.26626785 235.04082199 273.26959625 236.07261078 273.27302551 237.13566589 C273.27807148 239.31163083 273.28043456 241.48760344 273.28027344 243.66357422 C273.2824567 246.96831199 273.30062869 250.27271389 273.31958008 253.57739258 C273.32251524 255.70043832 273.32449921 257.82348564 273.32543945 259.9465332 C273.33262497 260.92290237 273.33981049 261.89927155 273.34721375 262.90522766 C273.31812274 271.7711268 272.89406351 280.398471 266.9621582 287.4230957 C260.59773603 293.40139185 253.46307171 294.59608827 245.06152344 295.45336914 C233.15566733 296.71830486 223.1405903 301.50400674 215.0246582 310.4621582 C206.18578092 322.22819615 203.37194301 334.76088847 205.0949707 349.17700195 C207.15905264 358.85166535 212.71973319 366.26324809 218.8449707 373.80200195 C223.47540579 379.6999292 224.95966007 385.69743893 224.0949707 393.17700195 C221.04052684 405.80203657 207.93535594 415.57836204 199.03808594 424.52905273 C197.69474344 425.88400538 196.3559035 427.24343606 195.02148438 428.60717773 C193.06489144 430.60654948 191.09527566 432.59223321 189.12231445 434.57543945 C188.53562485 435.17963715 187.94893524 435.78383484 187.34446716 436.40634155 C181.52444009 442.1965476 175.17551141 445.77852817 166.9074707 446.42700195 C158.19137692 445.85545482 153.13278818 442.64980214 146.69580078 436.953125 C136.10116356 427.7679514 124.74776809 426.44360996 111.26977539 427.00219727 C106.40653659 427.39309073 102.3811584 428.93407454 98.0949707 431.17700195 C97.16168945 431.66297852 96.2284082 432.14895508 95.2668457 432.6496582 C85.5475619 438.26612958 78.57404567 446.44368556 75.0949707 457.17700195 C73.95074458 461.54853252 73.24318261 465.93441727 72.70825195 470.41918945 C71.71977186 478.27261844 70.44184623 484.36512649 64.31762695 489.7355957 C59.53035624 493.30833685 56.04306589 494.30018581 50.18994141 494.35400391 C48.97470291 494.36683914 47.75946442 494.37967438 46.50740051 494.39289856 C45.19180649 494.40028549 43.87621246 494.40767242 42.52075195 494.4152832 C41.51382829 494.42139649 41.51382829 494.42139649 40.48656273 494.42763329 C36.93066086 494.44847988 33.37479737 494.46278537 29.81884766 494.47216797 C26.16161342 494.48320539 22.50499215 494.51757732 18.84797382 494.55733967 C16.02279093 494.5836008 13.19775169 494.59186832 10.3724575 494.59544945 C8.3739744 494.60263675 6.37558988 494.62903799 4.37727356 494.65583801 C-3.7557989 494.63650912 -9.84623596 494.11826266 -15.9284668 488.2121582 C-16.37448242 487.56118164 -16.82049805 486.91020508 -17.2800293 486.23950195 C-17.74151367 485.59110352 -18.20299805 484.94270508 -18.6784668 484.2746582 C-21.48485082 479.47520527 -22.26696588 475.02597898 -22.7800293 469.55200195 C-24.26031076 456.40159451 -28.70201148 445.02236823 -39.1550293 436.36450195 C-49.78236249 428.76586911 -61.78430691 425.04211179 -74.9050293 426.61450195 C-85.48628512 428.83246879 -94.09308608 434.04256281 -101.82299805 441.44262695 C-106.14573787 445.04355844 -110.93063413 445.96545961 -116.4050293 446.55200195 C-131.90895333 444.89086724 -141.74745816 431.5670142 -152.25708008 421.12011719 C-153.61203272 419.77677469 -154.97146341 418.43793475 -156.33520508 417.10351562 C-158.33457682 415.14692269 -160.32026056 413.17730691 -162.3034668 411.2043457 C-162.90766449 410.6176561 -163.51186218 410.03096649 -164.1343689 409.42649841 C-169.92457494 403.60647134 -173.50655552 397.25754266 -174.1550293 388.98950195 C-173.58348216 380.27340817 -170.37782948 375.21481943 -164.68115234 368.77783203 C-155.49597875 358.18319481 -154.1716373 346.82979934 -154.73022461 333.35180664 C-155.12111807 328.48856784 -156.66210188 324.46318965 -158.9050293 320.17700195 C-159.39100586 319.2437207 -159.87698242 318.31043945 -160.37768555 317.34887695 C-165.99415693 307.62959315 -174.1717129 300.65607692 -184.9050293 297.17700195 C-189.27655986 296.03277583 -193.66244462 295.32521386 -198.1472168 294.7902832 C-206.82935047 293.69749732 -213.11440701 291.93234545 -218.7800293 284.98950195 C-223.3916659 277.6010586 -223.20599302 268.4925072 -223.1706543 260.05200195 C-223.17256775 259.02445801 -223.1744812 257.99691406 -223.17645264 256.93823242 C-223.1778049 254.78018954 -223.17417602 252.62213826 -223.16577148 250.46411133 C-223.15505847 247.18592831 -223.16569982 243.9082932 -223.1784668 240.63012695 C-223.17714503 238.52075076 -223.17458229 236.4113749 -223.1706543 234.30200195 C-223.17470276 233.33504395 -223.17875122 232.36808594 -223.18292236 231.37182617 C-223.114366 221.28067976 -222.26052341 212.56670766 -214.9050293 205.17700195 C-209.69020389 201.13285164 -204.8425551 200.52588602 -198.37768555 199.6574707 C-188.33660313 198.26820958 -180.22715323 196.08449503 -171.9050293 190.17700195 C-170.8531543 189.45512695 -169.8012793 188.73325195 -168.7175293 187.98950195 C-159.39964286 178.67161552 -154.56772403 167.22485077 -154.4050293 154.17700195 C-154.56303932 140.38600078 -160.13817623 131.03428265 -168.6550293 120.55200195 C-173.14938563 114.8373237 -174.53063847 109.4340683 -173.9050293 102.17700195 C-171.63689806 88.98732572 -157.8905833 78.92168224 -148.84814453 69.82495117 C-147.50480203 68.46999853 -146.16596209 67.11056784 -144.83154297 65.74682617 C-142.87495004 63.74745443 -140.90533425 61.76177069 -138.93237305 59.77856445 C-138.34568344 59.17436676 -137.75899384 58.57016907 -137.15452576 57.94766235 C-131.33449869 52.15745631 -124.98557001 48.57547573 -116.7175293 47.92700195 C-108.00143552 48.49854909 -102.94284677 51.70420177 -96.50585938 57.40087891 C-85.91122216 66.5860525 -74.55782668 67.91039395 -61.07983398 67.35180664 C-56.21659519 66.96091318 -52.191217 65.41992937 -47.9050293 63.17700195 C-46.97174805 62.69102539 -46.0384668 62.20504883 -45.0769043 61.7043457 C-35.35762049 56.08787432 -28.38410427 47.91031835 -24.9050293 37.17700195 C-23.76080318 32.80547139 -23.0532412 28.41958663 -22.51831055 23.93481445 C-21.52983045 16.08138547 -20.25190482 9.98887742 -14.12768555 4.6184082 C-9.34041484 1.04566706 -5.85312448 0.0538181 0 0 Z M-6.9050293 18.17700195 C-8.18831127 20.7435659 -8.18219158 23.16624203 -8.39794922 25.99169922 C-9.5330365 39.83349762 -13.27477788 51.74613581 -22.9050293 62.17700195 C-23.6887793 63.04325195 -24.4725293 63.90950195 -25.2800293 64.80200195 C-32.63603199 71.45743296 -39.50084132 75.85142771 -48.9050293 79.17700195 C-49.75581055 79.49797852 -50.6065918 79.81895508 -51.4831543 80.1496582 C-65.58281256 84.79908539 -80.44833896 82.88322784 -93.76049805 76.8918457 C-100.02758018 73.71852767 -105.0645953 69.70967527 -110.2019043 64.93481445 C-113.86515623 62.55264195 -115.60192169 62.36215817 -119.9050293 63.17700195 C-121.82449561 64.52168968 -121.82449561 64.52168968 -123.67773438 66.27197266 C-124.37784637 66.90760132 -125.07795837 67.54322998 -125.79928589 68.19812012 C-128.99130241 71.19783199 -132.12145628 74.25038531 -135.21362305 77.3527832 C-135.86581314 78.00401657 -136.51800323 78.65524994 -137.18995667 79.32621765 C-138.55153065 80.68711731 -139.91186753 82.04925575 -141.27099609 83.41259766 C-143.35815204 85.5051652 -145.45066562 87.5922702 -147.54370117 89.67895508 C-148.87149634 91.00741014 -150.19898177 92.33617489 -151.52612305 93.6652832 C-152.1520787 94.28921463 -152.77803436 94.91314606 -153.42295837 95.5559845 C-157.74152601 99.77289299 -157.74152601 99.77289299 -159.2878418 105.38793945 C-158.81033455 110.11428673 -156.82868931 112.40064901 -153.7800293 115.80200195 C-142.39259917 129.42165312 -138.3624865 144.51488694 -139.9050293 162.17700195 C-142.31806025 174.73573121 -147.29314284 185.74493584 -155.9050293 195.17700195 C-155.9050293 195.83700195 -155.9050293 196.49700195 -155.9050293 197.17700195 C-156.77708008 197.57145508 -156.77708008 197.57145508 -157.66674805 197.97387695 C-160.0090465 199.23291347 -161.72025544 200.67791005 -163.7175293 202.42700195 C-173.31815269 209.91673909 -183.88040911 212.8044931 -195.82666016 213.42041016 C-200.75752274 213.73573354 -203.41982557 214.63838515 -206.9050293 218.17700195 C-208.15459725 220.67613787 -208.04545233 222.39340371 -208.06616211 225.18994141 C-208.07576965 226.23475174 -208.0853772 227.27956207 -208.09527588 228.35603333 C-208.09952576 229.48933578 -208.10377563 230.62263824 -208.1081543 231.7902832 C-208.11385437 232.95198532 -208.11955444 234.11368744 -208.12542725 235.31059265 C-208.13488725 237.77280768 -208.14141518 240.23503543 -208.14526367 242.69726562 C-208.1549624 246.46352268 -208.18597438 250.22923261 -208.2175293 253.99536133 C-208.22405985 256.38533204 -208.22931011 258.77530666 -208.2331543 261.1652832 C-208.2455011 262.29251297 -208.2578479 263.41974274 -208.27056885 264.58113098 C-208.26756775 265.6353978 -208.26456665 266.68966461 -208.26147461 267.77587891 C-208.26512024 268.70028275 -208.26876587 269.62468658 -208.27252197 270.57710266 C-207.82407792 273.74970839 -206.78262372 275.59784732 -204.9050293 278.17700195 C-201.1583392 280.67479535 -197.88429935 280.65728263 -193.5300293 280.98950195 C-178.70509682 282.40824799 -166.00258094 287.95750012 -155.9050293 299.17700195 C-155.22053711 299.85569336 -155.22053711 299.85569336 -154.5222168 300.5480957 C-143.9636578 311.63181863 -139.37169135 327.24809982 -139.55541992 342.25024414 C-140.10520614 357.80027863 -146.52637586 371.35407989 -157.18237305 382.5793457 C-159.56847304 386.177433 -159.70269038 387.92731605 -158.9050293 392.17700195 C-157.56101375 394.0976442 -157.56101375 394.0976442 -155.81030273 395.95043945 C-155.17463882 396.65044571 -154.53897491 397.35045197 -153.88404846 398.07167053 C-150.8839723 401.26322862 -147.83158872 404.39348597 -144.72924805 407.4855957 C-144.07801468 408.1377858 -143.42678131 408.78997589 -142.7558136 409.46192932 C-141.39491394 410.82350331 -140.0327755 412.18384019 -138.66943359 413.54296875 C-136.57686605 415.63012469 -134.48976105 417.72263827 -132.40307617 419.81567383 C-131.07462111 421.143469 -129.74585636 422.47095443 -128.41674805 423.7980957 C-127.79281662 424.42405136 -127.16888519 425.05000702 -126.52604675 425.69493103 C-122.30913826 430.01349866 -122.30913826 430.01349866 -116.6940918 431.55981445 C-111.96848905 431.08238242 -109.68030976 429.10145983 -106.2800293 426.05200195 C-93.06661354 414.95066868 -79.16509295 411.13742063 -62.15307617 411.98168945 C-48.19904241 413.19402948 -33.76446922 420.31756203 -23.9050293 430.17700195 C-14.11201758 441.97241863 -9.05320967 454.73280023 -8.3815918 469.9855957 C-7.86308686 473.45787879 -6.98960663 475.37615989 -4.9050293 478.17700195 C-1.61106513 480.37297806 -0.60625805 480.43248669 3.22143555 480.45166016 C4.26617035 480.46119217 5.31090515 480.47072418 6.38729858 480.48054504 C7.51543976 480.47963364 8.64358093 480.47872223 9.8059082 480.4777832 C10.96619537 480.48206833 12.12648254 480.48635345 13.32192993 480.49076843 C15.77817126 480.49651556 18.2344296 480.4970092 20.69067383 480.49267578 C24.44813133 480.48952029 28.20479835 480.51295583 31.9621582 480.53833008 C34.34757388 480.54060347 36.73299167 480.54130638 39.1184082 480.5402832 C40.24250092 480.54949295 41.36659363 480.5587027 42.52474976 480.56819153 C43.57578888 480.56196274 44.626828 480.55573395 45.7097168 480.54931641 C46.63110443 480.54994583 47.55249207 480.55057526 48.50180054 480.55122375 C51.63784185 480.09865992 53.52517076 478.99851308 56.0949707 477.17700195 C58.33804288 474.01230495 58.31647288 471.1720426 58.4074707 467.36450195 C59.37605957 452.73716845 65.58948074 440.21451228 75.0949707 429.17700195 C88.7998336 417.28452063 104.03505235 411.2615604 122.2121582 411.8996582 C136.98452198 412.95482704 149.80940788 419.30845658 160.49731445 429.4543457 C164.09540175 431.8404457 165.8452848 431.97466304 170.0949707 431.17700195 C172.01561295 429.8329864 172.01561295 429.8329864 173.8684082 428.08227539 C174.56841446 427.44661148 175.26842072 426.81094757 175.98963928 426.15602112 C179.18119737 423.15594495 182.31145472 420.10356137 185.40356445 417.0012207 C186.05575455 416.34998734 186.70794464 415.69875397 187.37989807 415.02778625 C188.74147206 413.6668866 190.10180894 412.30474816 191.4609375 410.94140625 C193.54809344 408.84883871 195.64060702 406.76173371 197.73364258 404.67504883 C199.06143775 403.34659376 200.38892318 402.01782902 201.71606445 400.6887207 C202.65499794 399.75282356 202.65499794 399.75282356 203.61289978 398.79801941 C207.9326594 394.57958494 207.9326594 394.57958494 209.4777832 388.9621582 C209.00064596 384.24434195 207.02353814 381.99627262 203.9699707 378.61450195 C198.33576794 371.92913522 194.94737059 365.50765721 192.0949707 357.17700195 C191.83071289 356.41258789 191.56645508 355.64817383 191.29418945 354.8605957 C186.99904183 339.46234537 190.72858328 323.19621442 198.16137695 309.5012207 C206.95751531 294.37897072 219.55989479 286.61827515 236.0637207 281.57543945 C239.95463541 280.81222157 243.94978023 280.82765924 247.90356445 280.65356445 C251.39836237 280.13169744 253.30915465 279.32900801 256.0949707 277.17700195 C258.06180267 274.05289011 258.35510822 271.5947306 258.38549805 267.93701172 C258.39825775 266.89235245 258.41101746 265.84769318 258.42416382 264.77137756 C258.42638947 263.64839767 258.42861511 262.52541779 258.4309082 261.3684082 C258.437565 260.20953598 258.4442218 259.05066376 258.45108032 257.85667419 C258.46120317 255.40641873 258.46589746 252.95613572 258.46557617 250.50585938 C258.46995016 246.75710682 258.50627812 243.00953066 258.54418945 239.26098633 C258.55005745 236.88013098 258.55402696 234.49927004 258.5559082 232.1184082 C258.57746475 230.43697472 258.57746475 230.43697472 258.59945679 228.72157288 C258.60086037 222.55431106 258.60086037 222.55431106 256.19116211 216.99316406 C252.69040144 213.96006849 250.47268354 214.07143807 245.9074707 213.92700195 C232.79064164 213.04000327 219.31057934 208.52215473 209.91918945 198.9621582 C208.28212534 196.94386424 208.28212534 196.94386424 206.0949707 197.17700195 C205.83200195 196.6046582 205.5690332 196.03231445 205.2980957 195.44262695 C204.02136189 193.03838796 202.51324835 191.07622451 200.8449707 188.92700195 C197.69377161 184.49027185 195.61358419 180.0524018 193.7199707 174.98950195 C193.46957031 174.32466797 193.21916992 173.65983398 192.96118164 172.97485352 C187.63903969 158.07433648 188.99555989 142.53830326 195.38012695 128.3137207 C198.55928785 122.05281052 202.56385537 117.0157597 207.3371582 111.88012695 C209.7193307 108.21687502 209.90981448 106.48010956 209.0949707 102.17700195 C207.75028297 100.25753564 207.75028297 100.25753564 206 98.40429688 C205.36437134 97.70418488 204.72874268 97.00407288 204.07385254 96.28274536 C201.07414066 93.09072884 198.02158735 89.96057497 194.91918945 86.8684082 C194.26795609 86.21621811 193.61672272 85.56402802 192.945755 84.89207458 C191.58485535 83.5305006 190.22271691 82.17016372 188.859375 80.81103516 C186.76680746 78.72387921 184.67970246 76.63136563 182.59301758 74.53833008 C181.26456251 73.21053491 179.93579777 71.88304948 178.60668945 70.5559082 C177.98275803 69.92995255 177.3588266 69.30399689 176.71598816 68.65907288 C172.49755369 64.33931325 172.49755369 64.33931325 166.88012695 62.79418945 C162.1623107 63.2713267 159.91424137 65.24843452 156.5324707 68.30200195 C149.84710397 73.93620471 143.42562596 77.32460207 135.0949707 80.17700195 C134.33055664 80.44125977 133.56614258 80.70551758 132.77856445 80.9777832 C117.12367459 85.34451719 101.22606523 81.28824718 87.24731445 74.02856445 C83.39489442 71.76580473 80.35414508 69.21395989 77.0949707 66.17700195 C76.4349707 66.17700195 75.7749707 66.17700195 75.0949707 66.17700195 C74.83200195 65.59563477 74.5690332 65.01426758 74.2980957 64.4152832 C73.03905919 62.07298475 71.5940626 60.36177581 69.8449707 58.36450195 C62.35523356 48.76387856 59.46747956 38.20162214 58.8515625 26.25537109 C58.53693915 21.33545542 57.68698483 18.61112535 54.0949707 15.17700195 C51.11157244 14.18253587 49.08607042 14.03336603 45.96850586 14 C44.92377106 13.98716476 43.87903625 13.97432953 42.80264282 13.96110535 C41.67450165 13.95371841 40.54636047 13.94633148 39.3840332 13.9387207 C38.22374603 13.93064896 37.06345886 13.92257721 35.86801147 13.91426086 C33.4117787 13.90042447 30.95552673 13.88970033 28.49926758 13.88183594 C24.74173694 13.86460179 20.98508121 13.8207076 17.2277832 13.77661133 C14.84237301 13.76648626 12.45695534 13.75796958 10.0715332 13.7512207 C8.94744049 13.73371262 7.82334778 13.71620453 6.66519165 13.69816589 C-0.98125227 13.64186428 -0.98125227 13.64186428 -6.9050293 18.17700195 Z " fill="#010100" transform="translate(230.905029296875,8.822998046875)"/>
<path d="M0 0 C20.41808854 17.60180047 35.01464225 38.72520479 42.25 64.84375 C42.5696875 65.97941406 42.889375 67.11507812 43.21875 68.28515625 C50.80408769 100.83889716 43.56998712 134.73555705 26.25 162.84375 C8.24679315 190.68870993 -20.94048473 209.25508337 -52.9375 216.71875 C-70.56329089 219.67102604 -90.46373942 219.67837767 -107.75 214.84375 C-108.92046875 214.53824219 -110.0909375 214.23273438 -111.296875 213.91796875 C-143.55595251 204.39946412 -169.51597616 181.82633116 -185.4375 152.59375 C-199.3200562 126.10180158 -203.88189949 93.9194396 -195.75 64.84375 C-195.44449219 63.67328125 -195.13898438 62.5028125 -194.82421875 61.296875 C-189.96908323 44.84237936 -181.25481995 28.58539643 -169.75 15.84375 C-168.93837402 14.94366211 -168.93837402 14.94366211 -168.11035156 14.02539062 C-151.55922297 -4.00532248 -131.37674344 -16.61117102 -107.75 -23.15625 C-106.61433594 -23.4759375 -105.47867188 -23.795625 -104.30859375 -24.125 C-68.70053693 -32.42202295 -28.24423166 -23.38562475 0 0 Z M-146.75 12.84375 C-147.67683594 13.59269531 -148.60367188 14.34164062 -149.55859375 15.11328125 C-168.5504729 31.35739916 -182.32995753 56.87210302 -184.75 81.84375 C-185.99176808 113.29802431 -180.35400993 139.76521603 -160.75 164.84375 C-158.44584519 163.973618 -158.44584519 163.973618 -157.70703125 161.10546875 C-157.32933594 159.92597656 -156.95164062 158.74648438 -156.5625 157.53125 C-149.13783406 135.60291226 -133.48874475 119.7568403 -113.3828125 109.05078125 C-101.77646744 103.41460649 -90.86888166 101.29302366 -78 101.40625 C-76.76862305 101.41527344 -75.53724609 101.42429687 -74.26855469 101.43359375 C-50.44940592 101.88549855 -29.70893562 111.8482835 -13.1640625 129.0234375 C-5.2686746 138.2474991 -0.1320256 148.59415642 4.25 159.84375 C4.91627986 161.51057134 5.58279832 163.17729744 6.25 164.84375 C21.92813187 150.00648679 30.43861705 125.20168695 31.37451172 104.02661133 C32.15798921 74.09631117 25.37425158 49.40871762 6.25 25.84375 C5.55132812 24.97878906 4.85265625 24.11382812 4.1328125 23.22265625 C-12.09327861 4.17334416 -37.11213206 -8.62632291 -61.75 -12.15625 C-66.4823071 -12.4564179 -71.19669851 -12.4903061 -75.9375 -12.46875 C-77.22744873 -12.46311035 -78.51739746 -12.4574707 -79.84643555 -12.45166016 C-105.07262913 -12.12973893 -127.2053301 -3.07081971 -146.75 12.84375 Z " fill="#020202" transform="translate(332.75,160.15625)"/>
<path d="M0 0 C1.155 -0.01224609 2.31 -0.02449219 3.5 -0.03710938 C23.1191331 -0.07070378 38.88999765 8.11754922 52.9375 21.375 C61.64248299 30.3290526 67.89305157 41.17003827 71 53.3125 C71.39445312 54.80136719 71.39445312 54.80136719 71.796875 56.3203125 C72.29049998 59.44376711 72.35828872 61.22403234 71.25 64.1875 C55.06090831 80.23256063 28.79263997 89.40974382 6.40820312 89.4609375 C5.26287109 89.45320313 4.11753906 89.44546875 2.9375 89.4375 C1.2369043 89.44910156 1.2369043 89.44910156 -0.49804688 89.4609375 C-11.5212013 89.4358135 -22.17794784 88.17110522 -32.625 84.5625 C-33.38184082 84.30380127 -34.13868164 84.04510254 -34.91845703 83.77856445 C-46.87207053 79.52658277 -59.64941041 73.20712349 -68.75 64.1875 C-71.48055671 57.16938828 -67.10891213 48.45201305 -64.390625 41.921875 C-55.1566778 22.56037281 -39.56086772 9.40283495 -19.52734375 2.09765625 C-12.94946291 -0.05796433 -6.90101341 0.00380012 0 0 Z " fill="#65D2EF" transform="translate(254.75,274.8125)"/>
<path d="M0 0 C8.64564678 6.89245399 13.39270694 14.80312083 16.875 25.25 C17.63853281 40.0589852 15.92760374 52.27252155 6.1875 64 C-0.78596422 71.43310876 -10.60553378 77.12808927 -20.9296875 77.68359375 C-22.61963004 77.70700335 -24.31001661 77.70774702 -26 77.6875 C-26.88405518 77.67992676 -27.76811035 77.67235352 -28.67895508 77.66455078 C-35.19754821 77.49970588 -40.46212729 76.65194965 -46.125 73.25 C-47.28515625 72.59644531 -47.28515625 72.59644531 -48.46875 71.9296875 C-58.17056629 66.01157956 -63.95422426 57.7469188 -68.125 47.25 C-70.9131514 34.58574604 -69.57037874 22.73823922 -63 11.625 C-56.32384544 1.71573914 -47.26515631 -5.09098122 -35.625 -8.0625 C-22.76499346 -10.44398269 -10.64890597 -7.56524594 0 0 Z " fill="#020202" transform="translate(282.125,175.75)"/>
<path d="M0 0 C8.21594332 -0.44526966 15.0330241 2.24476087 21.359375 7.44140625 C27.78458126 13.4764178 31.15933746 19.79379505 31.484375 28.62890625 C31.40391899 37.28239668 28.81278149 43.83659257 23.1484375 50.38671875 C15.63203296 57.48719576 8.56793766 58.74696816 -1.62109375 58.46484375 C-10.43001037 57.74195493 -16.04969537 53.71074488 -21.953125 47.19140625 C-27.06766313 39.42124256 -27.87162181 31.3552595 -26.953125 22.19140625 C-24.5843421 14.50082858 -19.72565606 8.17310185 -12.90234375 3.91015625 C-8.62049318 1.65230661 -4.81618738 0.47198636 0 0 Z " fill="#ECC5A2" transform="translate(253.953125,180.80859375)"/>
</svg>
