<?xml version="1.0" encoding="UTF-8"?>
<svg version="1.1" xmlns="http://www.w3.org/2000/svg" width="512" height="512">
<path d="M0 0 C5.28 0 10.56 0 16 0 C16 13.53 16 27.06 16 41 C18.97 41.99 18.97 41.99 22 43 C26.73057479 46.48133562 30.83929543 51.13429656 32 57 C32.79891153 65.36859823 32.65498932 71.88060458 28 79 C27.34 79.66 26.68 80.32 26 81 C25.04783646 88.76764006 26.39210471 97.06753202 27.05859375 104.8203125 C27.22150658 106.76827225 27.22150658 106.76827225 27.38771057 108.75558472 C27.616364 111.4871805 27.84772564 114.2185276 28.08129883 116.94970703 C28.37889353 120.43013821 28.67140994 123.91097193 28.96211147 127.39198494 C29.24230458 130.74326105 29.52545279 134.09428409 29.80859375 137.4453125 C29.91280136 138.68507843 30.01700897 139.92484436 30.12437439 141.20217896 C30.21509492 151.68330072 30.21509492 151.68330072 33.63671875 160.9609375 C34.31347656 161.42757812 34.99023438 161.89421875 35.6875 162.375 C42.46690475 167.70602204 46.0810223 174.66116963 48 183 C49.33309406 195.5768072 48.22694296 206.6855893 40.4375 217 C38.41382751 219.45184373 36.38190816 221.88861326 34 224 C33.34 224 32.68 224 32 224 C32 254.69 32 285.38 32 317 C33.65 317.66 35.3 318.32 37 319 C50.68440189 327.3456442 58.93398354 339.03291538 63.3737793 354.28369141 C64.4046532 358.75523256 64.53211711 363.11304739 64.5 367.6875 C64.49427979 368.64430664 64.48855957 369.60111328 64.48266602 370.58691406 C64.15966281 383.546194 60.24540077 393.87373592 52 404 C51.54367187 404.59425781 51.08734375 405.18851562 50.6171875 405.80078125 C48.0766627 409.02037714 45.28619348 411.5588277 42 414 C43.59374308 419.42923466 46.04162748 424.24471574 48.625 429.25 C49.45418111 430.85749222 50.27988539 432.46678417 51.1015625 434.078125 C51.46588379 434.78356445 51.83020508 435.48900391 52.20556641 436.21582031 C53 438 53 438 53 440 C56.63 440 60.26 440 64 440 C63.94399045 438.59230598 63.94399045 438.59230598 63.8868494 437.15617371 C63.53523685 423.93825732 65.33766088 411.1705963 67.21850586 398.11328125 C67.56630782 395.63732261 67.9130744 393.16121834 68.25889587 390.6849823 C69.00492727 385.35994183 69.75808072 380.03598491 70.51783562 374.71289062 C71.6350213 366.88525904 72.73865801 359.05575953 73.83944053 351.22580647 C75.65097553 338.34275788 77.47291655 325.46120348 79.30151367 312.58056641 C81.03347861 300.38043361 82.76119726 288.17971474 84.48217773 275.97802734 C84.58622612 275.24035153 84.6902745 274.50267572 84.79747586 273.7426461 C85.42642905 269.28327024 86.0552097 264.82387006 86.68394563 260.36446357 C87.62742863 253.67286528 88.57120492 246.98130839 89.51528931 240.28979492 C89.67081848 239.18740343 89.67081848 239.18740343 89.82948966 238.0627414 C91.29163478 227.70024617 92.75796764 217.33835043 94.2275833 206.97691214 C95.16759782 200.34925003 96.1071048 193.72151597 97.04638672 187.09375 C97.14911989 186.36889459 97.25185306 185.64403919 97.35769936 184.89721847 C100.28403306 164.24692115 103.17523221 143.5920193 106.03081308 122.93181944 C106.73076716 117.86810965 107.43243054 112.80463936 108.13529682 107.74133301 C108.23255594 107.04060748 108.32981505 106.33988194 108.43002141 105.61792231 C108.81778831 102.82431518 109.20558763 100.03071258 109.5935875 97.23713779 C110.80148691 88.53960081 111.99992747 79.84085537 113.18923903 71.1407547 C113.85948575 66.25358826 114.53835371 61.36764845 115.21963954 56.48200989 C115.53187133 54.22934985 115.84039254 51.9761719 116.14492345 49.72245789 C116.55932794 46.65858655 116.98666633 43.59678907 117.41725159 40.53515625 C117.53396003 39.64801689 117.65066848 38.76087753 117.77091354 37.84685516 C118.46032065 33.05634009 119.40691887 29.19111632 122 25 C124.56685154 23.71657423 126.43001066 23.85191893 129.30419922 23.82299805 C130.96634964 23.80374519 130.96634964 23.80374519 132.66207886 23.78410339 C133.86413971 23.77671646 135.06620056 23.76932953 136.3046875 23.76171875 C137.53534943 23.753647 138.76601135 23.74557526 140.03396606 23.73725891 C142.64160753 23.72340968 145.24926719 23.7126913 147.85693359 23.70483398 C150.53229481 23.69596439 153.20713822 23.67507052 155.88232422 23.64331055 C159.73160586 23.6008046 163.58020082 23.58448795 167.4296875 23.57421875 C168.62769989 23.55671066 169.82571228 23.53920258 171.06002808 23.52116394 C172.17443268 23.52408951 173.28883728 23.52701508 174.43701172 23.5300293 C175.41693085 23.52416306 176.39684998 23.51829681 177.40646362 23.51225281 C180.85719871 24.16120702 181.85629261 25.23689802 184 28 C184.49219131 31.17837906 184.49219131 31.17837906 184.48101807 35.01080322 C184.48443577 35.71659193 184.48785347 36.42238063 184.49137473 37.14955688 C184.49796339 39.51450582 184.47596286 41.8783197 184.45410156 44.24316406 C184.45297329 45.93831353 184.45360655 47.63346495 184.45587158 49.32861328 C184.45702045 53.9317063 184.43348321 58.53438339 184.40557575 63.13737965 C184.38059091 67.94733898 184.3782224 72.75730757 184.37347412 77.56732178 C184.36103576 86.67626744 184.3282025 95.78502134 184.28807616 104.89388251 C184.24338522 115.26376299 184.22137815 125.63365257 184.20129442 136.00360537 C184.15947064 157.33584399 184.08910185 178.66790992 184 200 C184.8172351 199.96539075 185.6344702 199.9307815 186.47646999 199.89512348 C187.55209729 199.86820518 188.62772459 199.84128687 189.73594666 199.81355286 C190.80068175 199.77894361 191.86541685 199.74433435 192.96241665 199.70867634 C198.14599711 200.20581484 200.63881906 203.2984836 204 207 C205.36357792 208.33024606 206.73212203 209.65541779 208.10522461 210.97583008 C209.5402699 212.40438443 210.97254832 213.83572249 212.40234375 215.26953125 C213.16551407 216.03174484 213.92868439 216.79395844 214.71498108 217.57926941 C216.31194789 219.17556068 217.90767253 220.77309553 219.50219727 222.37182617 C221.95149736 224.82652823 224.40614904 227.27578896 226.86132812 229.72460938 C228.4169878 231.28092907 229.97233766 232.83755852 231.52734375 234.39453125 C232.2626683 235.12783157 232.99799286 235.8611319 233.75559998 236.61665344 C234.76784386 237.63362556 234.76784386 237.63362556 235.80053711 238.67114258 C236.3959581 239.26735916 236.99137909 239.86357574 237.60484314 240.4778595 C239.98545792 243.0751518 240.12329717 244.84599197 240.11352539 248.26611328 C240.11344986 249.14687531 240.11337433 250.02763733 240.11329651 250.93508911 C240.10813522 251.88721283 240.10297394 252.83933655 240.09765625 253.8203125 C240.09553383 255.28100662 240.09553383 255.28100662 240.09336853 256.77120972 C240.08775973 259.88917073 240.07520573 263.0070606 240.0625 266.125 C240.05748613 268.23567605 240.05292303 270.34635322 240.04882812 272.45703125 C240.03778745 277.63804521 240.02104073 282.81901752 240 288 C237.36 288 234.72 288 232 288 C232 293.28 232 298.56 232 304 C234.64 304 237.28 304 240 304 C240 348.88 240 393.76 240 440 C241.98 440.33 243.96 440.66 246 441 C249.30129013 445.9519352 248.37187267 451.87783382 248.37060547 457.6784668 C248.37497839 459.9263893 248.41130369 462.17234679 248.44921875 464.41992188 C248.45508737 465.8515558 248.45905646 467.28319903 248.4609375 468.71484375 C248.46915527 470.01542725 248.47737305 471.31601074 248.48583984 472.65600586 C248 476 248 476 246.46041107 478.17753935 C243.10312829 480.66432533 240.16599623 480.55383547 236.14758301 480.50336456 C234.94708895 480.51208521 234.94708895 480.51208521 233.72234249 480.52098203 C231.02357769 480.53565335 228.32571225 480.52166387 225.62695312 480.50793457 C223.67944115 480.51254067 221.73193265 480.51889162 219.78443146 480.52684355 C214.4195545 480.54359995 209.05496077 480.53526187 203.69008255 480.52289867 C197.90949802 480.51387626 192.1289634 480.52780392 186.34838867 480.53881836 C175.01901483 480.55663826 163.68974678 480.55274815 152.36036873 480.5411678 C143.15568292 480.53214738 133.95102684 480.53090343 124.74633789 480.53526306 C123.43806424 480.53587599 122.12979058 480.53648893 120.78187227 480.53712043 C118.12443732 480.53839929 115.46700238 480.53969614 112.80956745 480.5410108 C88.58127352 480.55250327 64.35303314 480.54058499 40.12474835 480.51964041 C17.99719711 480.50065732 -4.13026206 480.50235581 -26.2578125 480.52148438 C-51.10614708 480.54289306 -75.95443 480.55132803 -100.80277252 480.53903532 C-103.45062764 480.53776108 -106.09848276 480.53650359 -108.74633789 480.53526306 C-110.70071376 480.53433741 -110.70071376 480.53433741 -112.69457197 480.53339306 C-121.8920156 480.52993417 -131.08942665 480.53578009 -140.28686523 480.54518127 C-151.49001476 480.55638049 -162.69305212 480.55340502 -173.89618874 480.5320583 C-179.61612753 480.5215199 -185.33587909 480.51747348 -191.05581665 480.53065491 C-196.28652667 480.54252693 -201.51687496 480.53610231 -206.74755192 480.5147447 C-208.6451993 480.51025654 -210.5428769 480.51259412 -212.44050503 480.52224785 C-215.00997231 480.53432213 -217.57818261 480.52202924 -220.14758301 480.50336456 C-221.26598241 480.51741156 -221.26598241 480.51741156 -222.40697575 480.53174233 C-225.81548823 480.48187931 -227.68733577 480.23190775 -230.45842743 478.17654753 C-232.69173086 475.02334466 -232.51788523 472.5837794 -232.53125 468.75 C-232.5350769 468.05487305 -232.53890381 467.35974609 -232.54284668 466.64355469 C-232.5455618 465.17771959 -232.53822835 463.71183572 -232.52148438 462.24609375 C-232.50006419 460.00671025 -232.52129443 457.77053413 -232.546875 455.53125 C-232.54423165 454.10415961 -232.5391065 452.67707121 -232.53125 451.25 C-232.52673828 449.95578125 -232.52222656 448.6615625 -232.51757812 447.328125 C-232 444 -232 444 -230.21679688 441.546875 C-228 440 -228 440 -224 440 C-224 421.52 -224 403.04 -224 384 C-221.36 384 -218.72 384 -216 384 C-216 378.72 -216 373.44 -216 368 C-218.64 368 -221.28 368 -224 368 C-224.09268792 359.20305508 -224.16375846 350.40627829 -224.20724869 341.60895157 C-224.22812211 337.5239563 -224.25643463 333.43929515 -224.30175781 329.35449219 C-224.3452253 325.41225655 -224.36913895 321.47034223 -224.37950897 317.52788544 C-224.38689882 316.02395316 -224.40132967 314.52003843 -224.42292023 313.01624298 C-224.45196812 310.90920541 -224.45595571 308.80349471 -224.45410156 306.69628906 C-224.46298401 305.49715881 -224.47186646 304.29802856 -224.48101807 303.06256104 C-224 300 -224 300 -222.25244141 297.60986328 C-219.71350515 295.79523661 -218.58707106 295.51049344 -215.50683594 295.54589844 C-214.18591949 295.54635162 -214.18591949 295.54635162 -212.83831787 295.54681396 C-211.89651672 295.56745911 -210.95471558 295.58810425 -209.984375 295.609375 C-209.01340881 295.61503479 -208.04244263 295.62069458 -207.04205322 295.62652588 C-203.94419831 295.64889689 -200.84750467 295.69909527 -197.75 295.75 C-195.64845422 295.77006403 -193.54689028 295.78831497 -191.4453125 295.8046875 C-186.2964283 295.8487642 -181.14841097 295.91779742 -176 296 C-176.02094727 294.68805664 -176.04189453 293.37611328 -176.06347656 292.02441406 C-176.1358797 287.15668656 -176.18180113 282.28900665 -176.21972656 277.42089844 C-176.23984126 275.31404618 -176.26713667 273.20724975 -176.30175781 271.10058594 C-176.35028168 268.07212553 -176.37297016 265.04440322 -176.390625 262.015625 C-176.41127014 261.07382385 -176.43191528 260.13202271 -176.45318604 259.16168213 C-176.45541187 252.67396946 -176.45541187 252.67396946 -174.22558594 249.37402344 C-172 248 -172 248 -168 248 C-168.05236816 247.25129639 -168.10473633 246.50259277 -168.15869141 245.73120117 C-169.68814822 220.44869932 -169.68814822 220.44869932 -163.4375 208.875 C-163.02000488 208.09535889 -162.60250977 207.31571777 -162.17236328 206.51245117 C-160.90867247 204.42913951 -159.75729918 202.68954582 -158 201 C-156.80890625 200.7834375 -155.6178125 200.566875 -154.390625 200.34375 C-150.80494103 199.38150418 -150.80494103 199.38150418 -149.85180664 196.39892578 C-148.86700835 192.82581897 -148.05767876 189.25564538 -147.3125 185.625 C-146.77961243 183.15608204 -146.2345131 180.68976038 -145.67578125 178.2265625 C-145.44802002 177.12908691 -145.22025879 176.03161133 -144.9855957 174.90087891 C-144 172 -144 172 -140 168 C-136.04 168 -132.08 168 -128 168 C-128 160.08 -128 152.16 -128 144 C-122.72 144 -117.44 144 -112 144 C-112 151.92 -112 159.84 -112 168 C-108.04 168 -104.08 168 -100 168 C-95.93908275 172.06091725 -95.41628699 172.96439286 -94.32421875 178.2265625 C-94.05287109 179.4228125 -93.78152344 180.6190625 -93.50195312 181.8515625 C-92.9578878 184.37226802 -92.42667605 186.89578134 -91.90820312 189.421875 C-91.13733953 192.76529273 -90.38613721 195.85989671 -89 199 C-85.63902181 200.46028161 -85.63902181 200.46028161 -82 201 C-79.61075625 203.29712552 -78.11896217 205.96842254 -76.5625 208.875 C-76.12437988 209.68622314 -75.68625977 210.49744629 -75.23486328 211.33325195 C-69.79587233 222.81144948 -71.13527813 235.63713788 -72 248 C-71.05125 248.103125 -70.1025 248.20625 -69.125 248.3125 C-66 249 -66 249 -64 252 C-63.77294922 254.91088867 -63.77294922 254.91088867 -63.8046875 258.41796875 C-63.81435547 260.29838867 -63.81435547 260.29838867 -63.82421875 262.21679688 C-63.84935547 264.18229492 -63.84935547 264.18229492 -63.875 266.1875 C-63.88503361 267.52277987 -63.8941588 268.85806689 -63.90234375 270.19335938 C-63.92594708 273.46242015 -63.95887406 276.73112028 -64 280 C-66.64 280 -69.28 280 -72 280 C-72 285.28 -72 290.56 -72 296 C-69.36 296 -66.72 296 -64 296 C-64 343.52 -64 391.04 -64 440 C-55.09 440 -46.18 440 -37 440 C-36.34 438.02 -35.68 436.04 -35 434 C-34.29285658 432.52047265 -33.5492761 431.05765408 -32.765625 429.6171875 C-32.35699219 428.84246094 -31.94835937 428.06773437 -31.52734375 427.26953125 C-30.66906244 425.66058189 -29.80171029 424.05644151 -28.92578125 422.45703125 C-28.32056641 421.29880859 -28.32056641 421.29880859 -27.703125 420.1171875 C-27.32833008 419.42222168 -26.95353516 418.72725586 -26.56738281 418.01123047 C-25.78723504 415.97261532 -25.78723504 415.97261532 -26.71606445 413.89160156 C-28.28526796 411.57971931 -30.27807136 410.06490049 -32.44873047 408.33496094 C-41.37238054 400.65562216 -47.03757839 387.90535992 -48.27783203 376.42919922 C-49.48379384 359.43390286 -46.93958125 345.51510038 -36 332 C-34.8553125 330.4221875 -34.8553125 330.4221875 -33.6875 328.8125 C-28.58529545 323.47298361 -22.83686034 319.73474413 -16 317 C-16 286.31 -16 255.62 -16 224 C-17.32 223.34 -18.64 222.68 -20 222 C-27.04369749 215.6588708 -31.66890729 206.47659903 -32.23828125 197.05859375 C-32.56704286 183.45847768 -30.72566462 173.21093686 -21 163 C-20.15985352 162.45174561 -19.31970703 161.90349121 -18.45410156 161.33862305 C-15.28569317 158.3193051 -15.09950206 155.77303324 -14.85546875 151.609375 C-14.79595535 150.90476135 -14.73644196 150.20014771 -14.67512512 149.47418213 C-14.49088801 147.23388622 -14.33879577 144.99273723 -14.1875 142.75 C-14.06787142 141.22639486 -13.94614956 139.70295254 -13.82226562 138.1796875 C-13.5239078 134.45470394 -13.25431601 130.72827905 -13 127 C-10.03 127 -7.06 127 -4 127 C-4.01160156 126.25234375 -4.02320313 125.5046875 -4.03515625 124.734375 C-4.04417969 123.74953125 -4.05320313 122.7646875 -4.0625 121.75 C-4.07410156 120.77546875 -4.08570313 119.8009375 -4.09765625 118.796875 C-4.01195577 116.34241322 -3.70706066 114.33831086 -3 112 C-5.64 112 -8.28 112 -11 112 C-10.94875977 111.08710205 -10.89751953 110.1742041 -10.84472656 109.23364258 C-10.66392881 105.83287151 -10.50215257 102.4322797 -10.35302734 99.0300293 C-10.28474113 97.56025752 -10.20898132 96.09081256 -10.12548828 94.62182617 C-10.00648288 92.50482044 -9.91478236 90.38807803 -9.828125 88.26953125 C-9.7652832 86.99698486 -9.70244141 85.72443848 -9.63769531 84.41333008 C-10.06703263 80.36847493 -11.25564607 78.91559228 -14 76 C-17.2798192 69.61793144 -17.11483387 61.41700002 -15.3828125 54.5546875 C-13.02324135 49.22999154 -8.78686321 45.22552306 -4 42 C-2.68 41.67 -1.36 41.34 0 41 C0 27.47 0 13.94 0 0 Z M-10 422 C-11.33819498 424.6226232 -12.6707151 427.24786599 -14 429.875 C-14.3815625 430.62136719 -14.763125 431.36773437 -15.15625 432.13671875 C-15.5171875 432.85214844 -15.878125 433.56757813 -16.25 434.3046875 C-16.58515625 434.96452637 -16.9203125 435.62436523 -17.265625 436.30419922 C-18.13246413 437.9978855 -18.13246413 437.9978855 -18 440 C-12.06 440 -6.12 440 0 440 C0 434.72 0 429.44 0 424 C-3.3 423.34 -6.6 422.68 -10 422 Z M16 424 C16 429.28 16 434.56 16 440 C21.94 440 27.88 440 34 440 C32.50748294 435.52244882 30.99752948 431.77777506 28.875 427.625 C28.33617187 426.56539063 27.79734375 425.50578125 27.2421875 424.4140625 C26.83226562 423.61742187 26.42234375 422.82078125 26 422 C22.26741033 421.86263944 22.26741033 421.86263944 16 424 Z " fill="#000000" transform="translate(248,16)"/>
<path d="M0 0 C26.4 0 52.8 0 80 0 C80 5.28 80 10.56 80 16 C82.64 16 85.28 16 88 16 C88 21.28 88 26.56 88 32 C85.36 32 82.72 32 80 32 C80 79.52 80 127.04 80 176 C53.6 176 27.2 176 0 176 C0 117.92 0 59.84 0 0 Z " fill="#A3F0FF" transform="translate(88,280)"/>
<path d="M0 0 C0.66 0.33 1.32 0.66 2 1 C2.30859375 3.3515625 2.30859375 3.3515625 2.4375 6.625 C2.82138362 13.23183917 3.51936754 19.75028496 4.375 26.3125 C4.48900146 27.2111377 4.60300293 28.10977539 4.72045898 29.03564453 C6.61003354 43.33178445 9.40832152 57.47708132 12.36962891 71.58398438 C12.8744392 73.99731901 13.36893563 76.41262808 13.86328125 78.828125 C16.05659673 89.39702181 18.76626775 99.70338977 22 110 C22.20927124 110.67067505 22.41854248 111.3413501 22.63415527 112.03234863 C30.5837776 137.41559553 39.13157001 163.69735502 54 186 C54.24050903 188.98027039 54.24050903 188.98027039 54.22705078 192.67456055 C54.22729185 193.35886296 54.22753292 194.04316538 54.2277813 194.74820423 C54.22628965 196.9611751 54.21106405 199.17380822 54.1953125 201.38671875 C54.1923716 202.75378253 54.19033145 204.12084856 54.18920898 205.48791504 C54.17872712 210.55447772 54.15080467 215.62099219 54.125 220.6875 C54.08375 232.010625 54.0425 243.33375 54 255 C25.29 255 -3.42 255 -33 255 C-33 234.3083727 -33 234.3083727 -31.609375 224.78125 C-31.46484894 223.72298004 -31.32032288 222.66471008 -31.17141724 221.57437134 C-30.70940453 218.21448363 -30.23016937 214.85733607 -29.75 211.5 C-29.42375862 209.15490787 -29.09840637 206.80969188 -28.77392578 204.46435547 C-27.09336155 192.38524074 -25.34622672 180.31780423 -23.41894531 168.27539062 C-21.79925917 158.04615744 -20.50448402 147.77554899 -19.17770386 137.50515747 C-17.75061688 126.47420858 -16.19629447 115.47779964 -14.44921875 104.4921875 C-13.14291014 96.18027226 -12.04999978 87.84771504 -11 79.5 C-9.82041333 70.12204242 -8.54713176 60.77223377 -7.0625 51.4375 C-4.34476934 34.34324865 -2.20741814 17.16608251 0 0 Z " fill="#98CAFD" transform="translate(362,201)"/>
<path d="M0 0 C10.89 0 21.78 0 33 0 C33 98.01 33 196.02 33 297 C19.04150684 276.06226027 13.29419149 246.23005061 8 222 C7.67588135 220.56188965 7.67588135 220.56188965 7.34521484 219.09472656 C1.13497548 191.5218271 -2.71061251 163.73872285 -4.80612183 135.57543945 C-4.9477577 133.69397637 -5.0936288 131.81283075 -5.24197388 129.93188477 C-6.69571012 111.40871514 -7.50542516 92.95568513 -7.5625 74.375 C-7.56878418 73.0724527 -7.57506836 71.7699054 -7.58154297 70.42788696 C-7.65706025 46.38151194 -4.95467953 23.4968093 0 0 Z " fill="#65B2FD" transform="translate(383,56)"/>
<path d="M0 0 C5.63755342 0 5.63755342 0 8.78051758 2.62573242 C9.48069 3.20834839 10.18086243 3.79096436 10.9022522 4.39123535 C14.93702619 7.92569188 18.91511723 11.50142894 22.8125 15.1875 C24.03678207 16.34108505 24.03678207 16.34108505 25.28579712 17.51797485 C34.74428657 26.67456868 41.74944647 34.59903113 42.43553162 48.14607239 C42.48096287 56.17557772 41.53853699 64.13012967 40 72 C42.64 72 45.28 72 48 72 C48 77.28 48 82.56 48 88 C45.36 88 42.72 88 40 88 C40 132.88 40 177.76 40 224 C26.8 224 13.6 224 0 224 C0 150.08 0 76.16 0 0 Z " fill="#A2EFFE" transform="translate(432,232)"/>
<path d="M0 0 C8.80288754 6.34043826 15.4186507 14.72648904 17.58203125 25.4921875 C18.92007691 37.90936834 17.85729499 48.88109459 10.39453125 59.2421875 C2.98805869 68.0324596 -5.72966669 73.76264888 -17.34420776 74.86474609 C-21.96078477 75.06817679 -26.5753361 75.04942679 -31.1953125 75.0234375 C-32.89636964 75.02613723 -34.59742527 75.03002364 -36.29847717 75.03503418 C-39.84114461 75.04089545 -43.38340558 75.03246867 -46.92602539 75.01367188 C-51.46458049 74.99076124 -56.00219557 75.00410232 -60.54071712 75.02796173 C-64.0434734 75.04240733 -67.54600604 75.0378216 -71.048769 75.02745056 C-72.72290726 75.02478615 -74.39706594 75.02804299 -76.07118034 75.03736877 C-78.40469296 75.04752795 -80.73667023 75.03205006 -83.07006836 75.00976562 C-83.75841263 75.01786255 -84.4467569 75.02595947 -85.15596008 75.03430176 C-88.49325961 74.97525411 -90.171425 74.68286409 -92.84387207 72.61599731 C-95.84592718 68.56555099 -95.03039681 63.72489437 -94.98046875 58.8671875 C-95.00431641 57.82433594 -95.02816406 56.78148437 -95.05273438 55.70703125 C-95.03713435 47.37661679 -93.18217038 40.57879572 -87.44262695 34.34765625 C-79.93589672 27.26252236 -72.44445112 25.96963904 -62.41796875 25.4921875 C-62.21042969 24.80253906 -62.00289062 24.11289063 -61.7890625 23.40234375 C-57.89748214 11.53220953 -50.99298682 3.23581452 -40.03125 -2.828125 C-27.475436 -8.32730234 -11.54108171 -7.19686194 0 0 Z " fill="#000000" transform="translate(126.41796875,53.5078125)"/>
<path d="M0 0 C10.56 0 21.12 0 32 0 C32 42.24 32 84.48 32 128 C21.44 128 10.88 128 0 128 C0 109.52 0 91.04 0 72 C-2.64 72 -5.28 72 -8 72 C-8 66.72 -8 61.44 -8 56 C-5.36 56 -2.72 56 0 56 C0 37.52 0 19.04 0 0 Z " fill="#99CCFF" transform="translate(40,328)"/>
<path d="M0 0 C147.84 0 295.68 0 448 0 C448 2.64 448 5.28 448 8 C300.16 8 152.32 8 0 8 C0 5.36 0 2.72 0 0 Z " fill="#FF7B66" transform="translate(32,472)"/>
<path d="M0 0 C6.06343563 3.8805988 10.95667407 9.08758162 13.1875 16 C14.13757005 23.29123523 13.37764424 29.86043036 9.1875 36 C3.68213848 42.1643044 -1.4088042 45.68365073 -9.75749207 46.17240906 C-13.38040014 46.2313702 -16.99782154 46.22461717 -20.62109375 46.1953125 C-21.95630175 46.19157667 -23.29151251 46.18873239 -24.62672424 46.18673706 C-28.12018566 46.17914541 -31.61347755 46.15953606 -35.10687256 46.1373291 C-38.67994901 46.11677371 -42.25305318 46.10771473 -45.82617188 46.09765625 C-52.82168368 46.07628534 -59.81708367 46.04220419 -66.8125 46 C-66.96777344 38.28466797 -66.96777344 38.28466797 -65.5703125 35.72265625 C-65.03148437 35.17480469 -64.49265625 34.62695312 -63.9375 34.0625 C-63.40382812 33.49660156 -62.87015625 32.93070313 -62.3203125 32.34765625 C-58.28797851 28.74362716 -52.5941666 29.64853739 -47.46484375 29.48242188 C-46.27955078 29.43118164 -46.27955078 29.43118164 -45.0703125 29.37890625 C-44.3498877 29.3538501 -43.62946289 29.32879395 -42.88720703 29.30297852 C-40.47273184 28.95038217 -38.85702305 28.33225738 -36.8125 27 C-35.81192259 23.87711248 -35.81192259 23.87711248 -35.3125 20.25 C-33.50626675 10.87478935 -29.49606297 5.55162464 -21.8125 0 C-14.98986209 -3.35010442 -6.80227986 -3.46531238 0 0 Z " fill="#D4E8FC" transform="translate(114.8125,66)"/>
<path d="M0 0 C17.82 0 35.64 0 54 0 C59 9 59 9 59 32 C37.88 32 16.76 32 -5 32 C-5 9 -5 9 0 0 Z " fill="#6FE7FE" transform="translate(101,232)"/>
<path d="M0 0 C6.4914144 3.67586116 11.89501919 8.78457824 13.9453125 16.1015625 C14.99668186 23.49400329 13.98321917 29.78861108 9.9453125 36.1015625 C5.910723 41.35163593 1.50748958 44.81666069 -5.0546875 46.1015625 C-12.18547 46.93557215 -18.22818386 46.53967322 -24.0546875 42.1015625 C-30.86659264 35.8341258 -33.94720538 30.47312925 -34.4296875 21.1640625 C-34.24524636 14.74745219 -32.3750711 10.54316016 -27.9609375 5.8984375 C-19.70920848 -1.74816473 -10.78719099 -4.67299367 0 0 Z " fill="#FCE7E5" transform="translate(266.0546875,185.8984375)"/>
<path d="M0 0 C26.07 0 52.14 0 79 0 C79.79594495 3.18377979 80.13580379 5.36998007 80.125 8.5625 C80.12886719 9.70912109 80.12886719 9.70912109 80.1328125 10.87890625 C80 13 80 13 79 16 C53.26 16 27.52 16 1 16 C0 13 0 13 0 0 Z " fill="#FE7A65" transform="translate(216,376)"/>
<path d="M0 0 C15.84 0 31.68 0 48 0 C48 5.28 48 10.56 48 16 C32.16 16 16.32 16 0 16 C0 10.72 0 5.44 0 0 Z " fill="#000000" transform="translate(352,424)"/>
<path d="M0 0 C15.84 0 31.68 0 48 0 C48 5.28 48 10.56 48 16 C32.16 16 16.32 16 0 16 C0 10.72 0 5.44 0 0 Z " fill="#000000" transform="translate(352,384)"/>
<path d="M0 0 C2.421875 1.890625 2.421875 1.890625 8.421875 8.890625 C-12.698125 8.890625 -33.818125 8.890625 -55.578125 8.890625 C-40.36983187 -8.85238366 -20.05566056 -11.71035214 0 0 Z " fill="#FBE6E4" transform="translate(279.578125,351.109375)"/>
<path d="M0 0 C21.12 0 42.24 0 64 0 C55.61207754 9.78590954 47.15430976 14.97603599 34.2109375 16.28125 C23.7584655 16.634573 14.26422084 13.45142401 6 7 C4.02 4.69 2.04 2.38 0 0 Z " fill="#FBE6E4" transform="translate(224,408)"/>
<path d="M0 0 C5.28 0 10.56 0 16 0 C16 13.2 16 26.4 16 40 C10.72 40 5.44 40 0 40 C0 26.8 0 13.6 0 0 Z " fill="#000000" transform="translate(48,400)"/>
<path d="M0 0 C5.28 0 10.56 0 16 0 C16 13.2 16 26.4 16 40 C10.72 40 5.44 40 0 40 C0 26.8 0 13.6 0 0 Z " fill="#000000" transform="translate(48,344)"/>
<path d="M0 0 C0.66 0 1.32 0 2 0 C3.46154837 14.78536309 4.919917 29.57152598 6.1875 44.375 C6.27112793 45.32246094 6.35475586 46.26992187 6.44091797 47.24609375 C6.90980974 52.85262761 7.07448186 58.37375481 7 64 C3.04 64 -0.92 64 -5 64 C-4.85937689 60.56221369 -4.71273071 57.12486829 -4.5625 53.6875 C-4.52318359 52.71103516 -4.48386719 51.73457031 -4.44335938 50.72851562 C-4.40146484 49.79072266 -4.35957031 48.85292969 -4.31640625 47.88671875 C-4.26141968 46.59060669 -4.26141968 46.59060669 -4.20532227 45.26831055 C-4 43 -4 43 -3 40 C-5.64 40 -8.28 40 -11 40 C-11.02712153 38.083412 -11.04645097 36.1667127 -11.0625 34.25 C-11.07410156 33.18265625 -11.08570313 32.1153125 -11.09765625 31.015625 C-11 28 -11 28 -10 24 C-7.03 24 -4.06 24 -1 24 C-1.01160156 22.85402344 -1.02320313 21.70804688 -1.03515625 20.52734375 C-1.04454242 18.99739748 -1.05364173 17.46744942 -1.0625 15.9375 C-1.07087891 15.18533203 -1.07925781 14.43316406 -1.08789062 13.65820312 C-1.10808341 8.99366882 -0.77595959 4.60076827 0 0 Z " fill="#F0A8AE" transform="translate(255,104)"/>
<path d="M0 0 C10.56 0 21.12 0 32 0 C32 5.28 32 10.56 32 16 C21.44 16 10.88 16 0 16 C0 10.72 0 5.44 0 0 Z " fill="#000000" transform="translate(112,240)"/>
<path d="M0 0 C7.92 0 15.84 0 24 0 C24 5.28 24 10.56 24 16 C16.08 16 8.16 16 0 16 C0 10.72 0 5.44 0 0 Z " fill="#000000" transform="translate(440,424)"/>
<path d="M0 0 C7.92 0 15.84 0 24 0 C24 5.28 24 10.56 24 16 C16.08 16 8.16 16 0 16 C0 10.72 0 5.44 0 0 Z " fill="#000000" transform="translate(440,384)"/>
<path d="M0 0 C7.92 0 15.84 0 24 0 C24 5.28 24 10.56 24 16 C16.08 16 8.16 16 0 16 C0 10.72 0 5.44 0 0 Z " fill="#000000" transform="translate(440,344)"/>
<path d="M0 0 C7.92 0 15.84 0 24 0 C24 5.28 24 10.56 24 16 C16.08 16 8.16 16 0 16 C0 10.72 0 5.44 0 0 Z " fill="#000000" transform="translate(440,304)"/>
<path d="M0 0 C6.6 0 13.2 0 20 0 C21.32 5.28 22.64 10.56 24 16 C14.76 16 5.52 16 -4 16 C-2.68 10.72 -1.36 5.44 0 0 Z " fill="#9FEAF9" transform="translate(118,200)"/>
<path d="M0 0 C5.28 0 10.56 0 16 0 C16 5.28 16 10.56 16 16 C10.72 16 5.44 16 0 16 C0 10.72 0 5.44 0 0 Z " fill="#000000" transform="translate(136,424)"/>
<path d="M0 0 C5.28 0 10.56 0 16 0 C16 5.28 16 10.56 16 16 C10.72 16 5.44 16 0 16 C0 10.72 0 5.44 0 0 Z " fill="#000000" transform="translate(104,424)"/>
<path d="M0 0 C5.28 0 10.56 0 16 0 C16 5.28 16 10.56 16 16 C10.72 16 5.44 16 0 16 C0 10.72 0 5.44 0 0 Z " fill="#000000" transform="translate(136,392)"/>
<path d="M0 0 C5.28 0 10.56 0 16 0 C16 5.28 16 10.56 16 16 C10.72 16 5.44 16 0 16 C0 10.72 0 5.44 0 0 Z " fill="#000000" transform="translate(104,392)"/>
<path d="M0 0 C5.28 0 10.56 0 16 0 C16 5.28 16 10.56 16 16 C10.72 16 5.44 16 0 16 C0 10.72 0 5.44 0 0 Z " fill="#000000" transform="translate(136,360)"/>
<path d="M0 0 C5.28 0 10.56 0 16 0 C16 5.28 16 10.56 16 16 C10.72 16 5.44 16 0 16 C0 10.72 0 5.44 0 0 Z " fill="#000000" transform="translate(104,360)"/>
<path d="M0 0 C5.28 0 10.56 0 16 0 C16 5.28 16 10.56 16 16 C10.72 16 5.44 16 0 16 C0 10.72 0 5.44 0 0 Z " fill="#000000" transform="translate(360,344)"/>
<path d="M0 0 C5.28 0 10.56 0 16 0 C16 5.28 16 10.56 16 16 C10.72 16 5.44 16 0 16 C0 10.72 0 5.44 0 0 Z " fill="#000000" transform="translate(136,328)"/>
<path d="M0 0 C5.28 0 10.56 0 16 0 C16 5.28 16 10.56 16 16 C10.72 16 5.44 16 0 16 C0 10.72 0 5.44 0 0 Z " fill="#000000" transform="translate(104,328)"/>
<path d="M0 0 C5.28 0 10.56 0 16 0 C16 5.28 16 10.56 16 16 C10.72 16 5.44 16 0 16 C0 10.72 0 5.44 0 0 Z " fill="#000000" transform="translate(136,296)"/>
<path d="M0 0 C5.28 0 10.56 0 16 0 C16 5.28 16 10.56 16 16 C10.72 16 5.44 16 0 16 C0 10.72 0 5.44 0 0 Z " fill="#000000" transform="translate(104,296)"/>
<path d="M0 0 C5.28 0 10.56 0 16 0 C16 5.28 16 10.56 16 16 C10.72 16 5.44 16 0 16 C0 10.72 0 5.44 0 0 Z " fill="#000000" transform="translate(440,264)"/>
<path d="M0 0 C5.28 0 10.56 0 16 0 C16 5.28 16 10.56 16 16 C10.72 16 5.44 16 0 16 C0 10.72 0 5.44 0 0 Z " fill="#000000" transform="translate(392,208)"/>
<path d="M0 0 C5.28 0 10.56 0 16 0 C16 5.28 16 10.56 16 16 C10.72 16 5.44 16 0 16 C0 10.72 0 5.44 0 0 Z " fill="#000000" transform="translate(392,176)"/>
<path d="M0 0 C5.28 0 10.56 0 16 0 C16 5.28 16 10.56 16 16 C10.72 16 5.44 16 0 16 C0 10.72 0 5.44 0 0 Z " fill="#000000" transform="translate(392,144)"/>
<path d="M0 0 C5.28 0 10.56 0 16 0 C16 5.28 16 10.56 16 16 C10.72 16 5.44 16 0 16 C0 10.72 0 5.44 0 0 Z " fill="#000000" transform="translate(392,112)"/>
<path d="M0 0 C5.28 0 10.56 0 16 0 C16 5.28 16 10.56 16 16 C10.72 16 5.44 16 0 16 C0 10.72 0 5.44 0 0 Z " fill="#000000" transform="translate(392,80)"/>
<path d="M0 0 C1.8046875 0.640625 1.8046875 0.640625 3.8046875 2.328125 C5.14507256 5.42776546 5.35136619 7.29221802 4.8046875 10.640625 C2.31384502 14.01058835 0.91879885 15.45872927 -3.2578125 16.140625 C-6.62408491 15.56764246 -7.98534714 15.2598432 -10.1953125 12.640625 C-11.16586381 9.90651093 -11.50945273 7.52959322 -11.1953125 4.640625 C-8.1181485 -0.22327939 -5.38557002 -1.09743691 0 0 Z " fill="#F47561" transform="translate(259.1953125,72.359375)"/>
<path d="M0 0 C5.28 0 10.56 0 16 0 C16 2.64 16 5.28 16 8 C10.72 8 5.44 8 0 8 C0 5.36 0 2.72 0 0 Z " fill="#FFB3B9" transform="translate(248,320)"/>
<path d="M0 0 C5.28 0 10.56 0 16 0 C16 2.64 16 5.28 16 8 C10.72 8 5.44 8 0 8 C0 5.36 0 2.72 0 0 Z " fill="#FFB3B9" transform="translate(248,296)"/>
<path d="M0 0 C5.28 0 10.56 0 16 0 C16 2.64 16 5.28 16 8 C10.72 8 5.44 8 0 8 C0 5.36 0 2.72 0 0 Z " fill="#FFB3B9" transform="translate(248,272)"/>
<path d="M0 0 C5.28 0 10.56 0 16 0 C16 2.64 16 5.28 16 8 C10.72 8 5.44 8 0 8 C0 5.36 0 2.72 0 0 Z " fill="#FFB3B9" transform="translate(248,248)"/>
</svg>
